<svg xmlns="http://www.w3.org/2000/svg" version="1.1" xmlns:xlink="http://www.w3.org/1999/xlink" xmlns:svgjs="http://svgjs.com/svgjs" width="1440" height="560" preserveAspectRatio="none" viewBox="0 0 1440 560"><g mask="url(&quot;#SvgjsMask1007&quot;)" fill="none"><path d="M230.81 0C256.78 3.92 257.1 21.16 280 21.16C293.67 21.16 288.84 2.28 303.95 0C358.84 -8.3 361.98 0 420 0C490 0 490 0 560 0C630 0 630 0 700 0C770 0 770 0 840 0C910 0 910 0 980 0C1050 0 1050 0 1120 0C1190 0 1190 0 1260 0C1330 0 1330 0 1400 0C1452.89 0 1505.78 -24.99 1505.78 0C1505.78 39.34 1453.84 65.25 1400 128.65C1394.39 135.25 1386.88 133.22 1386.88 140C1386.88 150.25 1390.51 153.77 1400 162.7C1464.89 223.77 1467.75 221.43 1535.63 280C1537.75 281.83 1539.91 280.74 1540 283.5C1542.1 350.74 1540 351.75 1540 420C1540 490 1569.67 519.67 1540 560C1518.17 589.67 1469.22 586.46 1437.01 560C1399.22 528.96 1440.2 462.41 1400 445C1351.7 424.08 1317.79 447.85 1260 483.33C1224.12 505.35 1247.16 541.1 1212.65 560C1177.16 579.43 1166.32 560 1120 560C1050 560 1050 560 980 560C919.46 560 917.46 565.97 858.92 560C847.46 558.83 849.37 545.71 840 545.71C830.93 545.71 833.13 558.87 822.05 560C763.13 566.01 761.03 560 700 560C630 560 630 560 560 560C514.7 560 512.14 569.16 469.41 560C442.14 554.16 447.58 536.44 420 530C352.87 514.33 337.61 504.49 280 515.79C261.15 519.49 285.7 554.12 267.08 560C215.7 576.22 203.54 560 140 560C70 560 35 595 0 560C-35 525 0 490 0 420C0 350 0 350 0 280C0 210 0 210 0 140C0 70 -35 35 0 0C35 -35 70 0 140 0C185.4 0 186.78 -6.66 230.81 0" stroke="rgba(0, 125, 255, 1)" stroke-width="2"></path><path d="M700 106.59C678.59 106.59 654.77 118.91 654.77 140C654.77 172.37 679.61 213.5 700 213.5C719.12 213.5 733.79 173.67 733.79 140C733.79 120.22 718.1 106.59 700 106.59" stroke="rgba(0, 125, 255, 1)" stroke-width="2"></path><path d="M980 113.33C968.58 120.08 972 126.59 972 140C972 155.48 966.19 168 980 171.11C1040.19 184.67 1059.6 185.76 1120 173.33C1135.16 170.21 1131.11 157.21 1131.11 140C1131.11 96.79 1147.67 57.38 1120 52.5C1072.11 44.05 1042.58 76.33 980 113.33" stroke="rgba(0, 125, 255, 1)" stroke-width="2"></path><path d="M140 263.64C88.84 263.64 46.34 247.43 35 280C19.12 325.61 47.49 363.86 85.56 420C99.99 441.28 112.88 434.85 140 434.85C164.6 434.85 184.81 440.62 189 420C200.56 363.19 191.08 342.47 171.5 280C166.58 264.29 157.09 263.64 140 263.64" stroke="rgba(0, 125, 255, 1)" stroke-width="2"></path><path d="M840 264.86C819.03 264.86 798.52 271.09 798.52 280C798.52 289.43 818.84 301.54 840 301.54C865.03 301.54 890.91 289.35 890.91 280C890.91 271.01 865.22 264.86 840 264.86" stroke="rgba(0, 125, 255, 1)" stroke-width="2"></path><path d="M1120 381.82C1109.08 381.82 1104.73 402.33 1104.73 420C1104.73 429.65 1110.83 436.47 1120 436.47C1135.27 436.47 1153.6 431.58 1153.6 420C1153.6 404.26 1133.51 381.82 1120 381.82" stroke="rgba(0, 125, 255, 1)" stroke-width="2"></path><path d="M0 98C56.07 43.2 66.23 12.7 140 3.18C206.23 -5.37 215 62.84 280 61.86C320 61.25 309.98 17.68 350 0C379.98 -13.25 385 0 420 0C490 0 490 0 560 0C630 0 630 0 700 0C754.44 0 759.17 -11.26 808.89 0C829.17 4.59 826.06 14.45 840 31.7C882.62 84.45 922 89.24 922 140C922 182.18 878.9 217.57 840 217.57C804.91 217.57 808.64 177.28 774.02 140C738.64 101.9 739.64 66.82 700 66.82C653.09 66.82 617.12 90.67 600.92 140C582.12 197.26 598.81 221.24 630 280C648.35 314.57 661.65 310.44 700 326.67C766.65 354.87 770.19 369.52 840 368.85C910.19 368.18 923.32 309.58 980 324C1023.87 335.16 1006.44 375.17 1041.09 420C1076.44 465.72 1082.27 461.11 1120 505.1C1142.31 531.11 1161.18 542.84 1161.18 560C1161.18 570.29 1140.59 560 1120 560C1050 560 1050 560 980 560C966.76 560 964.5 566.73 953.51 560C894.5 523.87 896.21 474.29 840 474.29C785.61 474.29 789 525.29 732.31 560C719 568.15 716.15 560 700 560C647.5 560 647.05 563.47 595 560C577.05 558.8 575.92 559.09 560 550.67C488.42 512.84 490.46 508.28 420 467.5C377.56 442.94 367.52 453.53 334.19 420C297.52 383.11 305.5 374.15 280 326.67C267.91 304.15 278.34 294.98 259 280C208.34 240.74 201.55 244.32 140 218.18C72.05 189.32 58.21 202.5 0 170C-11.79 163.41 0 155 0 140C0 119 -13.93 111.61 0 98" stroke="rgba(0, 125, 255, 1)" stroke-width="2"></path><path d="M1186.67 140C1214.71 68.71 1222.99 71.84 1260 4.12C1261.25 1.84 1260.61 0.08 1263.18 0C1330.61 -1.98 1331.59 0 1400 0C1433.45 0 1466.89 -15.8 1466.89 0C1466.89 24.88 1436.38 43.54 1400 81.35C1369.03 113.54 1332.19 104.97 1332.19 140C1332.19 192.94 1362.56 201.57 1400 257.3C1409.59 271.57 1426.25 267.5 1426.25 280C1426.25 295 1416.85 300.42 1400 312.31C1333.72 359.07 1322.89 405.48 1260 397.3C1198.64 389.32 1170.76 347.59 1151.5 280C1134.1 218.94 1160.46 206.65 1186.67 140" stroke="rgba(0, 125, 255, 1)" stroke-width="2"></path><path d="M1482.35 420C1493.35 386.86 1522.51 371 1540 371C1551.33 371 1540 395.5 1540 420C1540 490 1561.67 511.67 1540 560C1530.29 581.67 1486.16 581.66 1477.24 560C1457.33 511.66 1461.97 481.36 1482.35 420" stroke="rgba(0, 125, 255, 1)" stroke-width="2"></path><path d="M0 451.61C40.01 431 77.68 456.2 140 487.88C184.29 510.39 213.23 538.94 213.23 560C213.23 575 176.62 560 140 560C70 560 39.45 590.55 0 560C-30.55 536.35 -29.99 467.06 0 451.61" stroke="rgba(0, 125, 255, 1)" stroke-width="2"></path><path d="M71.89 140C71.89 115.66 99.81 89.96 140 82.73C203.86 71.24 212.67 84.33 280 102.56C318.45 112.97 351.56 115.18 351.56 140C351.56 172.23 324.09 209.85 280 216.67C218.31 226.21 208.68 198.03 140 172.73C104.63 159.7 71.89 160.66 71.89 140" stroke="rgba(0, 125, 255, 1)" stroke-width="2"></path><path d="M420 52C402.11 52 396.05 18.33 396.05 0C396.05 -7.67 408.02 0 420 0C451.38 0 482.76 -11.31 482.76 0C482.76 14.69 445.47 52 420 52" stroke="rgba(0, 125, 255, 1)" stroke-width="2"></path><path d="M700 27.05C665.24 27.05 627.88 6.98 627.88 0C627.88 -6.54 663.94 0 700 0C722.04 0 744.07 -6.22 744.07 0C744.07 7.3 723.34 27.05 700 27.05" stroke="rgba(0, 125, 255, 1)" stroke-width="2"></path><path d="M814.25 140C814.25 119.89 826.06 97.74 840 97.74C854.93 97.74 872 120.19 872 140C872 156.46 855.18 170.27 840 170.27C826.3 170.27 814.25 156.15 814.25 140" stroke="rgba(0, 125, 255, 1)" stroke-width="2"></path><path d="M1242.22 140C1244.43 121.76 1251.16 107.06 1260 107.06C1268.8 107.06 1273.98 121.9 1277.5 140C1290.78 208.37 1300.39 216.83 1293.6 280C1291.64 298.18 1275.49 302.7 1260 302.7C1248.19 302.7 1240.61 294.71 1239 280C1231.72 213.36 1233.93 208.23 1242.22 140" stroke="rgba(0, 125, 255, 1)" stroke-width="2"></path><path d="M1400 34.05C1374.34 34.05 1342.73 9.16 1342.73 0C1342.73 -7.87 1371.36 0 1400 0C1414 0 1428 -6.61 1428 0C1428 10.41 1416.98 34.05 1400 34.05" stroke="rgba(0, 125, 255, 1)" stroke-width="2"></path><path d="M375 280C375 255.76 397.5 239.35 420 239.35C442.5 239.35 441.55 260.81 465 280C511.55 318.08 513.09 316.22 560 353.89C600.25 386.22 639.33 389.06 639.33 420C639.33 448.56 601.19 472.89 560 472.89C509.79 472.89 500.96 454.56 456.52 420C430.96 400.12 436.81 392.86 420 364C396.05 322.86 375 318.09 375 280" stroke="rgba(0, 125, 255, 1)" stroke-width="2"></path><path d="M0 508.06C51.43 501.05 72.99 519.07 140 540.91C152.68 545.04 159.38 554.43 159.38 560C159.38 563.97 149.69 560 140 560C70 560 51.06 578.94 0 560C-18.94 552.97 -18.57 510.59 0 508.06" stroke="rgba(0, 125, 255, 1)" stroke-width="2"></path><path d="M1517.47 560C1517.47 529.28 1534.26 481.6 1540 481.6C1545.52 481.6 1548.75 529.55 1540 560C1537.49 568.75 1517.47 568.48 1517.47 560" stroke="rgba(0, 125, 255, 1)" stroke-width="2"></path></g><defs><mask id="SvgjsMask1007"><rect width="1440" height="560" fill="#ffffff"></rect></mask></defs></svg>