<svg xmlns="http://www.w3.org/2000/svg" version="1.1" xmlns:xlink="http://www.w3.org/1999/xlink" xmlns:svgjs="http://svgjs.com/svgjs" width="1440" height="560" preserveAspectRatio="none" viewBox="0 0 1440 560"><g mask="url(&quot;#SvgjsMask1184&quot;)" fill="none"><path d="M0 -75L64.95 -37.5L64.95 37.5L0 75L-64.95 37.5L-64.95 -37.5zM64.95 37.5L129.91 75L129.91 150L64.95 187.5L0 150L0 75zM0 150L64.95 187.5L64.95 262.5L0 300L-64.95 262.5L-64.95 187.5zM64.95 262.5L129.91 300L129.91 375L64.95 412.5L0 375L0 300zM0 375L64.95 412.5L64.95 487.5L0 525L-64.95 487.5L-64.95 412.5zM64.95 487.5L129.91 525L129.91 600L64.95 637.5L0 600L0 525zM129.91 -75L194.86 -37.5L194.86 37.5L129.91 75L64.95 37.5L64.95 -37.5zM194.86 37.5L259.81 75L259.81 150L194.86 187.5L129.91 150L129.91 75zM129.91 150L194.86 187.5L194.86 262.5L129.91 300L64.95 262.5L64.95 187.5zM194.86 262.5L259.81 300L259.81 375L194.86 412.5L129.91 375L129.91 300zM129.91 375L194.86 412.5L194.86 487.5L129.91 525L64.95 487.5L64.95 412.5zM194.86 487.5L259.81 525L259.81 600L194.86 637.5L129.91 600L129.91 525zM259.81 -75L324.77 -37.5L324.77 37.5L259.81 75L194.86 37.5L194.86 -37.5zM324.77 37.5L389.72 75L389.72 150L324.77 187.5L259.81 150L259.81 75zM259.81 150L324.77 187.5L324.77 262.5L259.81 300L194.86 262.5L194.86 187.5zM324.77 262.5L389.72 300L389.72 375L324.77 412.5L259.81 375L259.81 300zM259.81 375L324.77 412.5L324.77 487.5L259.81 525L194.86 487.5L194.86 412.5zM324.77 487.5L389.72 525L389.72 600L324.77 637.5L259.81 600L259.81 525zM389.72 -75L454.68 -37.5L454.68 37.5L389.72 75L324.77 37.5L324.77 -37.5zM454.68 37.5L519.63 75L519.63 150L454.68 187.5L389.72 150L389.72 75zM389.72 150L454.68 187.5L454.68 262.5L389.72 300L324.77 262.5L324.77 187.5zM454.68 262.5L519.63 300L519.63 375L454.68 412.5L389.72 375L389.72 300zM389.72 375L454.68 412.5L454.68 487.5L389.72 525L324.77 487.5L324.77 412.5zM454.68 487.5L519.63 525L519.63 600L454.68 637.5L389.72 600L389.72 525zM519.63 -75L584.58 -37.5L584.58 37.5L519.63 75L454.68 37.5L454.68 -37.5zM584.58 37.5L649.54 75L649.54 150L584.58 187.5L519.63 150L519.63 75zM519.63 150L584.58 187.5L584.58 262.5L519.63 300L454.68 262.5L454.68 187.5zM584.58 262.5L649.54 300L649.54 375L584.58 412.5L519.63 375L519.63 300zM519.63 375L584.58 412.5L584.58 487.5L519.63 525L454.68 487.5L454.68 412.5zM584.58 487.5L649.54 525L649.54 600L584.58 637.5L519.63 600L519.63 525zM649.54 -75L714.49 -37.5L714.49 37.5L649.54 75L584.58 37.5L584.58 -37.5zM714.49 37.5L779.45 75L779.45 150L714.49 187.5L649.54 150L649.54 75zM649.54 150L714.49 187.5L714.49 262.5L649.54 300L584.58 262.5L584.58 187.5zM714.49 262.5L779.45 300L779.45 375L714.49 412.5L649.54 375L649.54 300zM649.54 375L714.49 412.5L714.49 487.5L649.54 525L584.58 487.5L584.58 412.5zM714.49 487.5L779.45 525L779.45 600L714.49 637.5L649.54 600L649.54 525zM779.44 -75L844.4 -37.5L844.4 37.5L779.44 75L714.49 37.5L714.49 -37.5zM844.4 37.5L909.35 75L909.35 150L844.4 187.5L779.44 150L779.44 75zM779.44 150L844.4 187.5L844.4 262.5L779.44 300L714.49 262.5L714.49 187.5zM844.4 262.5L909.35 300L909.35 375L844.4 412.5L779.44 375L779.44 300zM779.44 375L844.4 412.5L844.4 487.5L779.44 525L714.49 487.5L714.49 412.5zM844.4 487.5L909.35 525L909.35 600L844.4 637.5L779.44 600L779.44 525zM909.35 -75L974.31 -37.5L974.31 37.5L909.35 75L844.4 37.5L844.4 -37.5zM974.31 37.5L1039.26 75L1039.26 150L974.31 187.5L909.35 150L909.35 75zM909.35 150L974.31 187.5L974.31 262.5L909.35 300L844.4 262.5L844.4 187.5zM974.31 262.5L1039.26 300L1039.26 375L974.31 412.5L909.35 375L909.35 300zM909.35 375L974.31 412.5L974.31 487.5L909.35 525L844.4 487.5L844.4 412.5zM974.31 487.5L1039.26 525L1039.26 600L974.31 637.5L909.35 600L909.35 525zM1039.26 -75L1104.21 -37.5L1104.21 37.5L1039.26 75L974.31 37.5L974.31 -37.5zM1104.21 37.5L1169.17 75L1169.17 150L1104.21 187.5L1039.26 150L1039.26 75zM1039.26 150L1104.21 187.5L1104.21 262.5L1039.26 300L974.31 262.5L974.31 187.5zM1104.21 262.5L1169.17 300L1169.17 375L1104.21 412.5L1039.26 375L1039.26 300zM1039.26 375L1104.21 412.5L1104.21 487.5L1039.26 525L974.31 487.5L974.31 412.5zM1104.21 487.5L1169.17 525L1169.17 600L1104.21 637.5L1039.26 600L1039.26 525zM1169.17 -75L1234.12 -37.5L1234.12 37.5L1169.17 75L1104.21 37.5L1104.21 -37.5zM1234.12 37.5L1299.07 75L1299.07 150L1234.12 187.5L1169.17 150L1169.17 75zM1169.17 150L1234.12 187.5L1234.12 262.5L1169.17 300L1104.21 262.5L1104.21 187.5zM1234.12 262.5L1299.07 300L1299.07 375L1234.12 412.5L1169.17 375L1169.17 300zM1169.17 375L1234.12 412.5L1234.12 487.5L1169.17 525L1104.21 487.5L1104.21 412.5zM1234.12 487.5L1299.07 525L1299.07 600L1234.12 637.5L1169.17 600L1169.17 525zM1299.08 -75L1364.03 -37.5L1364.03 37.5L1299.08 75L1234.12 37.5L1234.12 -37.5zM1364.03 37.5L1428.98 75L1428.98 150L1364.03 187.5L1299.08 150L1299.08 75zM1299.08 150L1364.03 187.5L1364.03 262.5L1299.08 300L1234.12 262.5L1234.12 187.5zM1364.03 262.5L1428.98 300L1428.98 375L1364.03 412.5L1299.08 375L1299.08 300zM1299.08 375L1364.03 412.5L1364.03 487.5L1299.08 525L1234.12 487.5L1234.12 412.5zM1364.03 487.5L1428.98 525L1428.98 600L1364.03 637.5L1299.08 600L1299.08 525zM1428.98 -75L1493.94 -37.5L1493.94 37.5L1428.98 75L1364.03 37.5L1364.03 -37.5zM1493.94 37.5L1558.89 75L1558.89 150L1493.94 187.5L1428.98 150L1428.98 75zM1428.98 150L1493.94 187.5L1493.94 262.5L1428.98 300L1364.03 262.5L1364.03 187.5zM1493.94 262.5L1558.89 300L1558.89 375L1493.94 412.5L1428.98 375L1428.98 300zM1428.98 375L1493.94 412.5L1493.94 487.5L1428.98 525L1364.03 487.5L1364.03 412.5zM1493.94 487.5L1558.89 525L1558.89 600L1493.94 637.5L1428.98 600L1428.98 525z" stroke="rgba(0, 0, 0, 0.93)" stroke-width="2"></path></g><defs><mask id="SvgjsMask1184"><rect width="1440" height="560" fill="#ffffff"></rect></mask></defs></svg>