<svg xmlns="http://www.w3.org/2000/svg" version="1.1" xmlns:xlink="http://www.w3.org/1999/xlink" xmlns:svgjs="http://svgjs.com/svgjs" width="1440" height="560" preserveAspectRatio="none" viewBox="0 0 1440 560"><g mask="url(&quot;#SvgjsMask1031&quot;)" fill="none"><rect width="1440" height="560" x="0" y="0" fill="url(#SvgjsLinearGradient1032)"></rect><path d="M164.19 358.7L164.19 361.96L179.82 361.96L179.82 358.7zM174.04 360.33 a5.78 5.78 0 1 0 11.56 0 a5.78 5.78 0 1 0 -11.56 0zM160.07 382.65L158.83 385.67L166 388.64L167.24 385.62zM160.84 387.13 a5.78 5.78 0 1 0 11.56 0 a5.78 5.78 0 1 0 -11.56 0zM147.1 403.21L144.8 405.52L151.07 411.79L153.38 409.48zM146.44 410.64 a5.78 5.78 0 1 0 11.56 0 a5.78 5.78 0 1 0 -11.56 0zM127.26 417.24L124.24 418.49L134.09 442.26L137.1 441.01zM129.82 441.63 a5.78 5.78 0 1 0 11.56 0 a5.78 5.78 0 1 0 -11.56 0zM103.55 422.6L100.29 422.6L100.29 430.51L103.55 430.51zM96.14 430.51 a5.78 5.78 0 1 0 11.56 0 a5.78 5.78 0 1 0 -11.56 0zM79.59 418.49L76.58 417.24L68.33 437.15L71.35 438.4zM64.06 437.77 a5.78 5.78 0 1 0 11.56 0 a5.78 5.78 0 1 0 -11.56 0zM59.04 405.52L56.73 403.21L40.7 419.24L43.01 421.55zM36.07 420.39 a5.78 5.78 0 1 0 11.56 0 a5.78 5.78 0 1 0 -11.56 0zM45.01 385.67L43.76 382.65L29.31 388.64L30.56 391.65zM24.16 390.15 a5.78 5.78 0 1 0 11.56 0 a5.78 5.78 0 1 0 -11.56 0zM39.64 361.96L39.64 358.7L17.94 358.7L17.94 361.96zM12.16 360.33 a5.78 5.78 0 1 0 11.56 0 a5.78 5.78 0 1 0 -11.56 0zM43.76 338.01L45.01 334.99L26.98 327.53L25.74 330.54zM20.58 329.03 a5.78 5.78 0 1 0 11.56 0 a5.78 5.78 0 1 0 -11.56 0zM56.73 317.45L59.04 315.14L50.26 306.37L47.96 308.67zM43.33 307.52 a5.78 5.78 0 1 0 11.56 0 a5.78 5.78 0 1 0 -11.56 0zM76.58 303.42L79.59 302.17L75.9 293.27L72.89 294.52zM68.62 293.89 a5.78 5.78 0 1 0 11.56 0 a5.78 5.78 0 1 0 -11.56 0zM100.29 298.06L103.55 298.06L103.55 285.73L100.29 285.73zM96.14 285.73 a5.78 5.78 0 1 0 11.56 0 a5.78 5.78 0 1 0 -11.56 0zM124.24 302.17L127.26 303.42L135.48 283.56L132.47 282.31zM128.2 282.93 a5.78 5.78 0 1 0 11.56 0 a5.78 5.78 0 1 0 -11.56 0zM144.8 315.14L147.1 317.45L155.67 308.88L153.37 306.57zM148.74 307.73 a5.78 5.78 0 1 0 11.56 0 a5.78 5.78 0 1 0 -11.56 0zM158.83 334.99L160.07 338.01L174.57 332L173.32 328.99zM168.17 330.49 a5.78 5.78 0 1 0 11.56 0 a5.78 5.78 0 1 0 -11.56 0zM39.63 360.33 a62.29 62.29 0 1 0 124.58 0 a62.29 62.29 0 1 0 -124.58 0z" fill="#488fdb"></path><path d="M79.78 302.1 A61.294399999999996 61.294399999999996 0 0 1 163.44 370.14M163.44 370.14 A124.58879999999999 124.58879999999999 0 0 0 79.78 302.1" fill="#2672c3" fill-rule="nonzero"></path><path d="M148.75 381.32 a5.61 5.61 0 1 0 11.22 0 a5.61 5.61 0 1 0 -11.22 0zM121.2 399.93 a10.59 10.59 0 1 0 21.18 0 a10.59 10.59 0 1 0 -21.18 0zM45.12 384.21 a3.11 3.11 0 1 0 6.22 0 a3.11 3.11 0 1 0 -6.22 0zM57.6 401.99 a4.36 4.36 0 1 0 8.72 0 a4.36 4.36 0 1 0 -8.72 0zM89.69 336.54 a12.46 12.46 0 1 0 24.92 0 a12.46 12.46 0 1 0 -24.92 0zM92.86 381.05 a10.59 10.59 0 1 0 21.18 0 a10.59 10.59 0 1 0 -21.18 0zM150.6 332.55 a3.11 3.11 0 1 0 6.22 0 a3.11 3.11 0 1 0 -6.22 0zM56.22 368.4 a4.36 4.36 0 1 0 8.72 0 a4.36 4.36 0 1 0 -8.72 0zM120.13 313.27 a8.1 8.1 0 1 0 16.2 0 a8.1 8.1 0 1 0 -16.2 0zM123.64 367.94 a3.11 3.11 0 1 0 6.22 0 a3.11 3.11 0 1 0 -6.22 0z" fill="#2672c3" fill-rule="nonzero"></path><path d="M463.12 232.95L463.12 236.68L486.27 236.68L486.27 232.95zM479.67 234.81 a6.6 6.6 0 1 0 13.2 0 a6.6 6.6 0 1 0 -13.2 0zM458.42 260.33L456.99 263.77L479.05 272.91L480.47 269.46zM473.16 271.18 a6.6 6.6 0 1 0 13.2 0 a6.6 6.6 0 1 0 -13.2 0zM443.6 283.82L440.96 286.46L448.39 293.88L451.02 291.24zM443.1 292.56 a6.6 6.6 0 1 0 13.2 0 a6.6 6.6 0 1 0 -13.2 0zM420.91 299.85L417.47 301.28L426.39 322.81L429.83 321.39zM421.51 322.1 a6.6 6.6 0 1 0 13.2 0 a6.6 6.6 0 1 0 -13.2 0zM393.82 305.98L390.09 305.98L390.09 320.5L393.82 320.5zM385.36 320.5 a6.6 6.6 0 1 0 13.2 0 a6.6 6.6 0 1 0 -13.2 0zM366.44 301.28L363 299.85L357.29 313.65L360.73 315.07zM352.41 314.36 a6.6 6.6 0 1 0 13.2 0 a6.6 6.6 0 1 0 -13.2 0zM342.95 286.46L340.31 283.82L333.09 291.05L335.72 293.68zM327.8 292.36 a6.6 6.6 0 1 0 13.2 0 a6.6 6.6 0 1 0 -13.2 0zM326.92 263.77L325.49 260.33L315 264.67L316.43 268.11zM309.12 266.39 a6.6 6.6 0 1 0 13.2 0 a6.6 6.6 0 1 0 -13.2 0zM320.79 236.68L320.79 232.95L293.04 232.95L293.04 236.68zM286.44 234.81 a6.6 6.6 0 1 0 13.2 0 a6.6 6.6 0 1 0 -13.2 0zM325.49 209.3L326.92 205.86L299.89 194.66L298.47 198.11zM292.58 196.38 a6.6 6.6 0 1 0 13.2 0 a6.6 6.6 0 1 0 -13.2 0zM340.31 185.81L342.95 183.17L332 172.23L329.37 174.86zM324.09 173.54 a6.6 6.6 0 1 0 13.2 0 a6.6 6.6 0 1 0 -13.2 0zM363 169.78L366.44 168.35L354.68 139.95L351.23 141.38zM346.36 140.66 a6.6 6.6 0 1 0 13.2 0 a6.6 6.6 0 1 0 -13.2 0zM390.09 163.64L393.82 163.64L393.82 141.56L390.09 141.56zM385.36 141.56 a6.6 6.6 0 1 0 13.2 0 a6.6 6.6 0 1 0 -13.2 0zM417.47 168.35L420.91 169.78L433.2 140.11L429.76 138.68zM424.88 139.4 a6.6 6.6 0 1 0 13.2 0 a6.6 6.6 0 1 0 -13.2 0zM440.96 183.17L443.6 185.81L462.39 167.01L459.76 164.38zM454.47 165.69 a6.6 6.6 0 1 0 13.2 0 a6.6 6.6 0 1 0 -13.2 0zM456.99 205.86L458.42 209.3L485.62 198.03L484.19 194.59zM478.31 196.31 a6.6 6.6 0 1 0 13.2 0 a6.6 6.6 0 1 0 -13.2 0zM320.77 234.81 a71.19 71.19 0 1 0 142.38 0 a71.19 71.19 0 1 0 -142.38 0z" fill="#488fdb"></path><path d="M461.01 252.13 A70.1936 70.1936 0 0 1 342.54 286.06M342.54 286.06 A142.3872 142.3872 0 0 0 461.01 252.13" fill="#2672c3" fill-rule="nonzero"></path><path d="M361.87 186.56 a14.24 14.24 0 1 0 28.48 0 a14.24 14.24 0 1 0 -28.48 0zM422.4 287.87 a6.41 6.41 0 1 0 12.82 0 a6.41 6.41 0 1 0 -12.82 0zM421.13 201.47 a14.24 14.24 0 1 0 28.48 0 a14.24 14.24 0 1 0 -28.48 0zM402.42 174.01 a4.98 4.98 0 1 0 9.96 0 a4.98 4.98 0 1 0 -9.96 0zM386.65 227.99 a14.24 14.24 0 1 0 28.48 0 a14.24 14.24 0 1 0 -28.48 0zM341.31 275.15 a14.24 14.24 0 1 0 28.48 0 a14.24 14.24 0 1 0 -28.48 0zM321.66 243.89 a8.54 8.54 0 1 0 17.08 0 a8.54 8.54 0 1 0 -17.08 0zM428.31 237.78 a6.41 6.41 0 1 0 12.82 0 a6.41 6.41 0 1 0 -12.82 0zM426.32 263.93 a2.85 2.85 0 1 0 5.7 0 a2.85 2.85 0 1 0 -5.7 0zM352.98 239.48 a6.41 6.41 0 1 0 12.82 0 a6.41 6.41 0 1 0 -12.82 0z" fill="#2672c3" fill-rule="nonzero"></path><path d="M1199.28 458.14L1199.28 460.94L1216.3 460.94L1216.3 458.14zM1211.35 459.54 a4.95 4.95 0 1 0 9.9 0 a4.95 4.95 0 1 0 -9.9 0zM1195.75 478.68L1194.68 481.26L1212.88 488.8L1213.95 486.22zM1208.47 487.51 a4.95 4.95 0 1 0 9.9 0 a4.95 4.95 0 1 0 -9.9 0zM1184.64 496.3L1182.66 498.27L1196.79 512.41L1198.77 510.43zM1192.83 511.42 a4.95 4.95 0 1 0 9.9 0 a4.95 4.95 0 1 0 -9.9 0zM1167.62 508.32L1165.04 509.39L1172.21 526.69L1174.79 525.62zM1168.55 526.16 a4.95 4.95 0 1 0 9.9 0 a4.95 4.95 0 1 0 -9.9 0zM1147.3 512.92L1144.51 512.92L1144.51 529.34L1147.3 529.34zM1140.95 529.34 a4.95 4.95 0 1 0 9.9 0 a4.95 4.95 0 1 0 -9.9 0zM1126.77 509.39L1124.19 508.32L1115.78 528.61L1118.37 529.68zM1112.12 529.14 a4.95 4.95 0 1 0 9.9 0 a4.95 4.95 0 1 0 -9.9 0zM1109.15 498.27L1107.17 496.3L1099.63 503.83L1101.61 505.81zM1095.67 504.82 a4.95 4.95 0 1 0 9.9 0 a4.95 4.95 0 1 0 -9.9 0zM1097.12 481.26L1096.06 478.68L1073.44 488.04L1074.51 490.63zM1069.02 489.34 a4.95 4.95 0 1 0 9.9 0 a4.95 4.95 0 1 0 -9.9 0zM1092.53 460.94L1092.53 458.14L1076.1 458.14L1076.1 460.94zM1071.15 459.54 a4.95 4.95 0 1 0 9.9 0 a4.95 4.95 0 1 0 -9.9 0zM1096.06 440.41L1097.12 437.82L1086.24 433.32L1085.17 435.9zM1080.76 434.61 a4.95 4.95 0 1 0 9.9 0 a4.95 4.95 0 1 0 -9.9 0zM1107.17 422.79L1109.15 420.81L1095.37 407.04L1093.4 409.01zM1089.44 408.02 a4.95 4.95 0 1 0 9.9 0 a4.95 4.95 0 1 0 -9.9 0zM1124.19 410.76L1126.77 409.69L1120.33 394.14L1117.75 395.21zM1114.09 394.68 a4.95 4.95 0 1 0 9.9 0 a4.95 4.95 0 1 0 -9.9 0zM1144.51 406.16L1147.3 406.16L1147.3 394.54L1144.51 394.54zM1140.95 394.54 a4.95 4.95 0 1 0 9.9 0 a4.95 4.95 0 1 0 -9.9 0zM1165.04 409.69L1167.62 410.76L1177.22 387.59L1174.64 386.52zM1170.98 387.06 a4.95 4.95 0 1 0 9.9 0 a4.95 4.95 0 1 0 -9.9 0zM1182.66 420.81L1184.64 422.79L1200.64 406.78L1198.66 404.81zM1194.7 405.8 a4.95 4.95 0 1 0 9.9 0 a4.95 4.95 0 1 0 -9.9 0zM1194.68 437.82L1195.75 440.41L1209.21 434.83L1208.14 432.25zM1203.73 433.54 a4.95 4.95 0 1 0 9.9 0 a4.95 4.95 0 1 0 -9.9 0zM1092.5 459.54 a53.4 53.4 0 1 0 106.8 0 a53.4 53.4 0 1 0 -106.8 0z" fill="#488fdb"></path><path d="M1145.56 512.94 A52.3952 52.3952 0 0 1 1099.78 432.64M1099.78 432.64 A106.7904 106.7904 0 0 0 1145.56 512.94" fill="#2672c3" fill-rule="nonzero"></path><path d="M1103.33 447.97 a10.68 10.68 0 1 0 21.36 0 a10.68 10.68 0 1 0 -21.36 0zM1165.84 500.4 a5.34 5.34 0 1 0 10.68 0 a5.34 5.34 0 1 0 -10.68 0zM1125.59 494.01 a10.68 10.68 0 1 0 21.36 0 a10.68 10.68 0 1 0 -21.36 0zM1173.04 472.12 a10.68 10.68 0 1 0 21.36 0 a10.68 10.68 0 1 0 -21.36 0zM1181.72 435.34 a5.34 5.34 0 1 0 10.68 0 a5.34 5.34 0 1 0 -10.68 0zM1138.47 466.91 a6.94 6.94 0 1 0 13.88 0 a6.94 6.94 0 1 0 -13.88 0zM1123.01 423.69 a8.54 8.54 0 1 0 17.08 0 a8.54 8.54 0 1 0 -17.08 0zM1136.48 445.13 a3.74 3.74 0 1 0 7.48 0 a3.74 3.74 0 1 0 -7.48 0zM1156.76 415.57 a5.87 5.87 0 1 0 11.74 0 a5.87 5.87 0 1 0 -11.74 0zM1154.62 443.33 a7.48 7.48 0 1 0 14.96 0 a7.48 7.48 0 1 0 -14.96 0z" fill="#2672c3" fill-rule="nonzero"></path><path d="M1072.52 152.92L1072.52 156.65L1093.02 156.65L1093.02 152.92zM1086.42 154.78 a6.6 6.6 0 1 0 13.2 0 a6.6 6.6 0 1 0 -13.2 0zM1067.81 180.3L1066.39 183.74L1079.26 189.07L1080.69 185.63zM1073.38 187.35 a6.6 6.6 0 1 0 13.2 0 a6.6 6.6 0 1 0 -13.2 0zM1052.99 203.79L1050.35 206.43L1060.03 216.1L1062.66 213.46zM1054.74 214.78 a6.6 6.6 0 1 0 13.2 0 a6.6 6.6 0 1 0 -13.2 0zM1030.3 219.82L1026.86 221.25L1033.82 238.05L1037.27 236.63zM1028.94 237.34 a6.6 6.6 0 1 0 13.2 0 a6.6 6.6 0 1 0 -13.2 0zM1003.21 225.95L999.48 225.95L999.48 255.51L1003.21 255.51zM994.75 255.51 a6.6 6.6 0 1 0 13.2 0 a6.6 6.6 0 1 0 -13.2 0zM975.83 221.25L972.39 219.82L961.16 246.93L964.61 248.35zM956.28 247.64 a6.6 6.6 0 1 0 13.2 0 a6.6 6.6 0 1 0 -13.2 0zM952.34 206.43L949.71 203.79L942.9 210.6L945.53 213.23zM937.61 211.92 a6.6 6.6 0 1 0 13.2 0 a6.6 6.6 0 1 0 -13.2 0zM936.31 183.74L934.88 180.3L908.98 191.03L910.4 194.47zM903.09 192.75 a6.6 6.6 0 1 0 13.2 0 a6.6 6.6 0 1 0 -13.2 0zM930.18 156.65L930.18 152.92L915.63 152.92L915.63 156.65zM909.03 154.78 a6.6 6.6 0 1 0 13.2 0 a6.6 6.6 0 1 0 -13.2 0zM934.88 129.27L936.31 125.83L912.95 116.15L911.53 119.6zM905.64 117.87 a6.6 6.6 0 1 0 13.2 0 a6.6 6.6 0 1 0 -13.2 0zM949.71 105.78L952.34 103.14L938.13 88.93L935.49 91.56zM930.21 90.25 a6.6 6.6 0 1 0 13.2 0 a6.6 6.6 0 1 0 -13.2 0zM972.39 89.74L975.83 88.32L966.84 66.61L963.4 68.03zM958.52 67.32 a6.6 6.6 0 1 0 13.2 0 a6.6 6.6 0 1 0 -13.2 0zM999.48 83.61L1003.21 83.61L1003.21 58.92L999.48 58.92zM994.75 58.92 a6.6 6.6 0 1 0 13.2 0 a6.6 6.6 0 1 0 -13.2 0zM1026.86 88.32L1030.3 89.74L1034.07 80.64L1030.63 79.22zM1025.75 79.93 a6.6 6.6 0 1 0 13.2 0 a6.6 6.6 0 1 0 -13.2 0zM1050.35 103.14L1052.99 105.78L1077.21 81.56L1074.57 78.92zM1069.29 80.24 a6.6 6.6 0 1 0 13.2 0 a6.6 6.6 0 1 0 -13.2 0zM1066.39 125.83L1067.81 129.27L1095.48 117.81L1094.06 114.36zM1088.17 116.09 a6.6 6.6 0 1 0 13.2 0 a6.6 6.6 0 1 0 -13.2 0zM930.16 154.78 a71.19 71.19 0 1 0 142.38 0 a71.19 71.19 0 1 0 -142.38 0z" fill="#488fdb"></path><path d="M934.33 130.75 A70.1936 70.1936 0 0 1 1055.57 108.65M1055.57 108.65 A142.3872 142.3872 0 0 0 934.33 130.75" fill="#2672c3" fill-rule="nonzero"></path><path d="M1018.87 121.85 a14.24 14.24 0 1 0 28.48 0 a14.24 14.24 0 1 0 -28.48 0zM1019.14 214.33 a6.41 6.41 0 1 0 12.82 0 a6.41 6.41 0 1 0 -12.82 0zM1030.7 189.18 a6.41 6.41 0 1 0 12.82 0 a6.41 6.41 0 1 0 -12.82 0zM979.18 110.13 a13.53 13.53 0 1 0 27.06 0 a13.53 13.53 0 1 0 -27.06 0zM1040.53 162.85 a7.83 7.83 0 1 0 15.66 0 a7.83 7.83 0 1 0 -15.66 0zM961.8 165.19 a14.24 14.24 0 1 0 28.48 0 a14.24 14.24 0 1 0 -28.48 0zM943.58 142.86 a5.7 5.7 0 1 0 11.4 0 a5.7 5.7 0 1 0 -11.4 0zM995.46 141.94 a3.56 3.56 0 1 0 7.12 0 a3.56 3.56 0 1 0 -7.12 0zM986.98 220.94 a4.27 4.27 0 1 0 8.54 0 a4.27 4.27 0 1 0 -8.54 0zM943.85 118.54 a4.27 4.27 0 1 0 8.54 0 a4.27 4.27 0 1 0 -8.54 0z" fill="#2672c3" fill-rule="nonzero"></path><path d="M701.86 137.25L701.86 140.05L721.89 140.05L721.89 137.25zM716.94 138.65 a4.95 4.95 0 1 0 9.9 0 a4.95 4.95 0 1 0 -9.9 0zM698.33 157.78L697.26 160.37L706.97 164.39L708.04 161.8zM702.55 163.1 a4.95 4.95 0 1 0 9.9 0 a4.95 4.95 0 1 0 -9.9 0zM687.21 175.4L685.24 177.38L694.83 186.97L696.81 185zM690.87 185.99 a4.95 4.95 0 1 0 9.9 0 a4.95 4.95 0 1 0 -9.9 0zM670.2 187.43L667.62 188.5L673.21 202.01L675.8 200.94zM669.56 201.48 a4.95 4.95 0 1 0 9.9 0 a4.95 4.95 0 1 0 -9.9 0zM649.88 192.02L647.08 192.02L647.08 205.24L649.88 205.24zM643.53 205.24 a4.95 4.95 0 1 0 9.9 0 a4.95 4.95 0 1 0 -9.9 0zM629.35 188.5L626.76 187.43L619.3 205.44L621.88 206.51zM615.64 205.98 a4.95 4.95 0 1 0 9.9 0 a4.95 4.95 0 1 0 -9.9 0zM611.73 177.38L609.75 175.4L592.28 192.88L594.25 194.85zM588.31 193.86 a4.95 4.95 0 1 0 9.9 0 a4.95 4.95 0 1 0 -9.9 0zM599.7 160.37L598.63 157.78L587.56 162.37L588.63 164.95zM583.15 163.66 a4.95 4.95 0 1 0 9.9 0 a4.95 4.95 0 1 0 -9.9 0zM595.1 140.05L595.1 137.25L576.46 137.25L576.46 140.05zM571.51 138.65 a4.95 4.95 0 1 0 9.9 0 a4.95 4.95 0 1 0 -9.9 0zM598.63 119.51L599.7 116.93L578.96 108.34L577.89 110.92zM573.48 109.63 a4.95 4.95 0 1 0 9.9 0 a4.95 4.95 0 1 0 -9.9 0zM609.75 101.89L611.73 99.92L601.58 89.77L599.6 91.75zM595.64 90.76 a4.95 4.95 0 1 0 9.9 0 a4.95 4.95 0 1 0 -9.9 0zM626.76 89.87L629.35 88.8L622.42 72.07L619.83 73.14zM616.17 72.6 a4.95 4.95 0 1 0 9.9 0 a4.95 4.95 0 1 0 -9.9 0zM647.08 85.27L649.88 85.27L649.88 65.37L647.08 65.37zM643.53 65.37 a4.95 4.95 0 1 0 9.9 0 a4.95 4.95 0 1 0 -9.9 0zM667.62 88.8L670.2 89.87L677.77 71.59L675.19 70.52zM671.53 71.05 a4.95 4.95 0 1 0 9.9 0 a4.95 4.95 0 1 0 -9.9 0zM685.24 99.92L687.21 101.89L695.28 93.82L693.3 91.85zM689.34 92.84 a4.95 4.95 0 1 0 9.9 0 a4.95 4.95 0 1 0 -9.9 0zM697.26 116.93L698.33 119.51L722.56 109.47L721.49 106.89zM717.08 108.18 a4.95 4.95 0 1 0 9.9 0 a4.95 4.95 0 1 0 -9.9 0zM595.08 138.65 a53.4 53.4 0 1 0 106.8 0 a53.4 53.4 0 1 0 -106.8 0z" fill="#488fdb"></path><path d="M662.95 190.05 A52.3952 52.3952 0 0 1 596.71 125.59M596.71 125.59 A106.7904 106.7904 0 0 0 662.95 190.05" fill="#2672c3" fill-rule="nonzero"></path><path d="M596.16 146.09 a10.68 10.68 0 1 0 21.36 0 a10.68 10.68 0 1 0 -21.36 0zM614.96 107.24 a10.68 10.68 0 1 0 21.36 0 a10.68 10.68 0 1 0 -21.36 0zM641.92 151.44 a10.68 10.68 0 1 0 21.36 0 a10.68 10.68 0 1 0 -21.36 0zM622.31 181.79 a5.34 5.34 0 1 0 10.68 0 a5.34 5.34 0 1 0 -10.68 0zM644.37 93.55 a8.01 8.01 0 1 0 16.02 0 a8.01 8.01 0 1 0 -16.02 0zM661.37 115.82 a10.15 10.15 0 1 0 20.3 0 a10.15 10.15 0 1 0 -20.3 0zM673.61 156.31 a10.15 10.15 0 1 0 20.3 0 a10.15 10.15 0 1 0 -20.3 0zM665.39 173.11 a2.14 2.14 0 1 0 4.28 0 a2.14 2.14 0 1 0 -4.28 0zM686.46 131.9 a3.2 3.2 0 1 0 6.4 0 a3.2 3.2 0 1 0 -6.4 0zM627.15 130.9 a2.14 2.14 0 1 0 4.28 0 a2.14 2.14 0 1 0 -4.28 0z" fill="#2672c3" fill-rule="nonzero"></path><path d="M1301.37 69.14L1301.37 71L1318.88 71L1318.88 69.14zM1315.58 70.07 a3.3 3.3 0 1 0 6.6 0 a3.3 3.3 0 1 0 -6.6 0zM1299.02 82.83L1298.31 84.55L1309.05 89L1309.77 87.28zM1306.11 88.14 a3.3 3.3 0 1 0 6.6 0 a3.3 3.3 0 1 0 -6.6 0zM1291.61 94.57L1290.29 95.89L1299.54 105.14L1300.86 103.82zM1296.9 104.48 a3.3 3.3 0 1 0 6.6 0 a3.3 3.3 0 1 0 -6.6 0zM1280.27 102.59L1278.55 103.3L1281.02 109.28L1282.74 108.57zM1278.58 108.92 a3.3 3.3 0 1 0 6.6 0 a3.3 3.3 0 1 0 -6.6 0zM1266.72 105.65L1264.86 105.65L1264.86 117.28L1266.72 117.28zM1262.49 117.28 a3.3 3.3 0 1 0 6.6 0 a3.3 3.3 0 1 0 -6.6 0zM1253.03 103.3L1251.31 102.59L1249.12 107.86L1250.85 108.58zM1246.69 108.22 a3.3 3.3 0 1 0 6.6 0 a3.3 3.3 0 1 0 -6.6 0zM1241.29 95.89L1239.97 94.57L1229.62 104.93L1230.93 106.24zM1226.97 105.58 a3.3 3.3 0 1 0 6.6 0 a3.3 3.3 0 1 0 -6.6 0zM1233.27 84.55L1232.56 82.83L1218.82 88.52L1219.53 90.24zM1215.87 89.38 a3.3 3.3 0 1 0 6.6 0 a3.3 3.3 0 1 0 -6.6 0zM1230.2 71L1230.2 69.14L1219.64 69.14L1219.64 71zM1216.34 70.07 a3.3 3.3 0 1 0 6.6 0 a3.3 3.3 0 1 0 -6.6 0zM1232.56 57.31L1233.27 55.59L1221.1 50.55L1220.39 52.27zM1217.45 51.41 a3.3 3.3 0 1 0 6.6 0 a3.3 3.3 0 1 0 -6.6 0zM1239.97 45.57L1241.29 44.25L1235.37 38.34L1234.06 39.66zM1231.42 39 a3.3 3.3 0 1 0 6.6 0 a3.3 3.3 0 1 0 -6.6 0zM1251.31 37.55L1253.03 36.84L1247.35 23.12L1245.63 23.83zM1243.19 23.47 a3.3 3.3 0 1 0 6.6 0 a3.3 3.3 0 1 0 -6.6 0zM1264.86 34.49L1266.72 34.49L1266.72 16.94L1264.86 16.94zM1262.49 16.94 a3.3 3.3 0 1 0 6.6 0 a3.3 3.3 0 1 0 -6.6 0zM1278.55 36.84L1280.27 37.55L1286.97 21.37L1285.25 20.66zM1282.81 21.02 a3.3 3.3 0 1 0 6.6 0 a3.3 3.3 0 1 0 -6.6 0zM1290.29 44.25L1291.61 45.57L1301.63 35.55L1300.31 34.23zM1297.67 34.89 a3.3 3.3 0 1 0 6.6 0 a3.3 3.3 0 1 0 -6.6 0zM1298.31 55.59L1299.02 57.31L1310.19 52.69L1309.48 50.96zM1306.53 51.83 a3.3 3.3 0 1 0 6.6 0 a3.3 3.3 0 1 0 -6.6 0zM1230.19 70.07 a35.6 35.6 0 1 0 71.2 0 a35.6 35.6 0 1 0 -71.2 0z" fill="#488fdb"></path><path d="M1230.26 67.95 A34.5968 34.5968 0 0 1 1285.33 40.32M1285.33 40.32 A71.1936 71.1936 0 0 0 1230.26 67.95" fill="#2672c3" fill-rule="nonzero"></path><path d="M1243.35 92 a7.12 7.12 0 1 0 14.24 0 a7.12 7.12 0 1 0 -14.24 0zM1256.95 64.72 a7.12 7.12 0 1 0 14.24 0 a7.12 7.12 0 1 0 -14.24 0zM1273.98 75.72 a1.42 1.42 0 1 0 2.84 0 a1.42 1.42 0 1 0 -2.84 0zM1268.28 44.81 a7.12 7.12 0 1 0 14.24 0 a7.12 7.12 0 1 0 -14.24 0zM1258.73 38.57 a1.78 1.78 0 1 0 3.56 0 a1.78 1.78 0 1 0 -3.56 0zM1246.26 69.97 a2.14 2.14 0 1 0 4.28 0 a2.14 2.14 0 1 0 -4.28 0zM1239.74 50.43 a7.12 7.12 0 1 0 14.24 0 a7.12 7.12 0 1 0 -14.24 0zM1292.81 56.86 a2.85 2.85 0 1 0 5.7 0 a2.85 2.85 0 1 0 -5.7 0zM1282.14 84.39 a7.12 7.12 0 1 0 14.24 0 a7.12 7.12 0 1 0 -14.24 0zM1294.64 69.24 a2.14 2.14 0 1 0 4.28 0 a2.14 2.14 0 1 0 -4.28 0z" fill="#2672c3" fill-rule="nonzero"></path><path d="M729.15 496.13L729.15 497.99L742.57 497.99L742.57 496.13zM739.27 497.06 a3.3 3.3 0 1 0 6.6 0 a3.3 3.3 0 1 0 -6.6 0zM726.8 509.82L726.09 511.54L741.57 517.95L742.29 516.23zM738.63 517.09 a3.3 3.3 0 1 0 6.6 0 a3.3 3.3 0 1 0 -6.6 0zM719.39 521.57L718.07 522.88L729.05 533.86L730.37 532.54zM726.41 533.2 a3.3 3.3 0 1 0 6.6 0 a3.3 3.3 0 1 0 -6.6 0zM708.05 529.58L706.33 530.3L712.04 544.1L713.77 543.38zM709.61 543.74 a3.3 3.3 0 1 0 6.6 0 a3.3 3.3 0 1 0 -6.6 0zM694.5 532.65L692.64 532.65L692.64 540.53L694.5 540.53zM690.27 540.53 a3.3 3.3 0 1 0 6.6 0 a3.3 3.3 0 1 0 -6.6 0zM680.81 530.3L679.09 529.58L675.58 538.05L677.3 538.77zM673.14 538.41 a3.3 3.3 0 1 0 6.6 0 a3.3 3.3 0 1 0 -6.6 0zM669.07 522.88L667.75 521.57L657.67 531.64L658.99 532.96zM655.03 532.3 a3.3 3.3 0 1 0 6.6 0 a3.3 3.3 0 1 0 -6.6 0zM661.05 511.54L660.34 509.82L648.96 514.53L649.68 516.25zM646.02 515.39 a3.3 3.3 0 1 0 6.6 0 a3.3 3.3 0 1 0 -6.6 0zM657.99 497.99L657.99 496.13L645.83 496.13L645.83 497.99zM642.53 497.06 a3.3 3.3 0 1 0 6.6 0 a3.3 3.3 0 1 0 -6.6 0zM660.34 484.31L661.05 482.58L645.86 476.29L645.15 478.01zM642.21 477.15 a3.3 3.3 0 1 0 6.6 0 a3.3 3.3 0 1 0 -6.6 0zM667.75 472.56L669.07 471.24L662.48 464.66L661.17 465.98zM658.52 465.32 a3.3 3.3 0 1 0 6.6 0 a3.3 3.3 0 1 0 -6.6 0zM679.09 464.54L680.81 463.83L677.06 454.78L675.34 455.49zM672.9 455.13 a3.3 3.3 0 1 0 6.6 0 a3.3 3.3 0 1 0 -6.6 0zM692.64 461.48L694.5 461.48L694.5 445.83L692.64 445.83zM690.27 445.83 a3.3 3.3 0 1 0 6.6 0 a3.3 3.3 0 1 0 -6.6 0zM706.33 463.83L708.05 464.54L709.92 460.02L708.2 459.3zM705.76 459.66 a3.3 3.3 0 1 0 6.6 0 a3.3 3.3 0 1 0 -6.6 0zM718.07 471.24L719.39 472.56L727.98 463.97L726.66 462.65zM724.02 463.31 a3.3 3.3 0 1 0 6.6 0 a3.3 3.3 0 1 0 -6.6 0zM726.09 482.58L726.8 484.31L731.47 482.37L730.76 480.65zM727.81 481.51 a3.3 3.3 0 1 0 6.6 0 a3.3 3.3 0 1 0 -6.6 0zM657.97 497.06 a35.6 35.6 0 1 0 71.2 0 a35.6 35.6 0 1 0 -71.2 0z" fill="#488fdb"></path><path d="M659.73 508.12 A34.5968 34.5968 0 0 1 700.84 462.22M700.84 462.22 A71.1936 71.1936 0 0 0 659.73 508.12" fill="#2672c3" fill-rule="nonzero"></path><path d="M676.32 502.25 a7.12 7.12 0 1 0 14.24 0 a7.12 7.12 0 1 0 -14.24 0zM691.72 487.42 a6.41 6.41 0 1 0 12.82 0 a6.41 6.41 0 1 0 -12.82 0zM676.17 468.16 a3.2 3.2 0 1 0 6.4 0 a3.2 3.2 0 1 0 -6.4 0zM660.38 485.33 a2.85 2.85 0 1 0 5.7 0 a2.85 2.85 0 1 0 -5.7 0zM709.69 478.59 a4.63 4.63 0 1 0 9.26 0 a4.63 4.63 0 1 0 -9.26 0zM717.11 492.56 a3.56 3.56 0 1 0 7.12 0 a3.56 3.56 0 1 0 -7.12 0zM697.64 521.54 a7.12 7.12 0 1 0 14.24 0 a7.12 7.12 0 1 0 -14.24 0zM658.61 501.92 a4.63 4.63 0 1 0 9.26 0 a4.63 4.63 0 1 0 -9.26 0zM672.65 489.03 a1.42 1.42 0 1 0 2.84 0 a1.42 1.42 0 1 0 -2.84 0zM707.87 506.24 a1.42 1.42 0 1 0 2.84 0 a1.42 1.42 0 1 0 -2.84 0z" fill="#2672c3" fill-rule="nonzero"></path><path d="M361.35 482.06L361.35 483.92L370.04 483.92L370.04 482.06zM366.74 482.99 a3.3 3.3 0 1 0 6.6 0 a3.3 3.3 0 1 0 -6.6 0zM359 495.75L358.29 497.47L368.05 501.51L368.77 499.79zM365.11 500.65 a3.3 3.3 0 1 0 6.6 0 a3.3 3.3 0 1 0 -6.6 0zM351.59 507.49L350.27 508.81L354.27 512.81L355.58 511.49zM351.63 512.15 a3.3 3.3 0 1 0 6.6 0 a3.3 3.3 0 1 0 -6.6 0zM340.25 515.51L338.53 516.22L343.15 527.38L344.87 526.67zM340.71 527.03 a3.3 3.3 0 1 0 6.6 0 a3.3 3.3 0 1 0 -6.6 0zM326.7 518.58L324.84 518.58L324.84 533.12L326.7 533.12zM322.47 533.12 a3.3 3.3 0 1 0 6.6 0 a3.3 3.3 0 1 0 -6.6 0zM313.01 516.22L311.29 515.51L309.45 519.95L311.18 520.66zM307.01 520.3 a3.3 3.3 0 1 0 6.6 0 a3.3 3.3 0 1 0 -6.6 0zM301.27 508.81L299.95 507.49L296.74 510.7L298.06 512.02zM294.1 511.36 a3.3 3.3 0 1 0 6.6 0 a3.3 3.3 0 1 0 -6.6 0zM293.25 497.47L292.54 495.75L278.89 501.4L279.6 503.12zM275.95 502.26 a3.3 3.3 0 1 0 6.6 0 a3.3 3.3 0 1 0 -6.6 0zM290.18 483.92L290.18 482.06L274.13 482.06L274.13 483.92zM270.83 482.99 a3.3 3.3 0 1 0 6.6 0 a3.3 3.3 0 1 0 -6.6 0zM292.54 470.23L293.25 468.51L280.53 463.24L279.81 464.97zM276.87 464.1 a3.3 3.3 0 1 0 6.6 0 a3.3 3.3 0 1 0 -6.6 0zM299.95 458.49L301.27 457.17L292.29 448.2L290.97 449.52zM288.33 448.86 a3.3 3.3 0 1 0 6.6 0 a3.3 3.3 0 1 0 -6.6 0zM311.29 450.47L313.01 449.76L306.94 435.1L305.22 435.81zM302.78 435.45 a3.3 3.3 0 1 0 6.6 0 a3.3 3.3 0 1 0 -6.6 0zM324.84 447.41L326.7 447.41L326.7 441.69L324.84 441.69zM322.47 441.69 a3.3 3.3 0 1 0 6.6 0 a3.3 3.3 0 1 0 -6.6 0zM338.53 449.76L340.25 450.47L346.04 436.48L344.32 435.76zM341.88 436.12 a3.3 3.3 0 1 0 6.6 0 a3.3 3.3 0 1 0 -6.6 0zM350.27 457.17L351.59 458.49L363.27 446.81L361.95 445.49zM359.31 446.15 a3.3 3.3 0 1 0 6.6 0 a3.3 3.3 0 1 0 -6.6 0zM358.29 468.51L359 470.23L371.15 465.2L370.44 463.48zM367.49 464.34 a3.3 3.3 0 1 0 6.6 0 a3.3 3.3 0 1 0 -6.6 0zM290.17 482.99 a35.6 35.6 0 1 0 71.2 0 a35.6 35.6 0 1 0 -71.2 0z" fill="#488fdb"></path><path d="M361.36 482.62 A34.5968 34.5968 0 0 1 308.35 514.04M308.35 514.04 A71.1936 71.1936 0 0 0 361.36 482.62" fill="#2672c3" fill-rule="nonzero"></path><path d="M350.68 478.11 a4.98 4.98 0 1 0 9.96 0 a4.98 4.98 0 1 0 -9.96 0zM322.75 494.29 a7.12 7.12 0 1 0 14.24 0 a7.12 7.12 0 1 0 -14.24 0zM335.91 458.69 a6.05 6.05 0 1 0 12.1 0 a6.05 6.05 0 1 0 -12.1 0zM311.39 452.96 a3.2 3.2 0 1 0 6.4 0 a3.2 3.2 0 1 0 -6.4 0zM292.74 495.15 a4.27 4.27 0 1 0 8.54 0 a4.27 4.27 0 1 0 -8.54 0zM303.94 482.87 a6.76 6.76 0 1 0 13.52 0 a6.76 6.76 0 1 0 -13.52 0zM340.82 505.13 a4.27 4.27 0 1 0 8.54 0 a4.27 4.27 0 1 0 -8.54 0zM290.39 480.29 a2.14 2.14 0 1 0 4.28 0 a2.14 2.14 0 1 0 -4.28 0zM326.91 511.89 a3.2 3.2 0 1 0 6.4 0 a3.2 3.2 0 1 0 -6.4 0zM294.05 467.79 a1.42 1.42 0 1 0 2.84 0 a1.42 1.42 0 1 0 -2.84 0z" fill="#2672c3" fill-rule="nonzero"></path><path d="M825.2 333.03L825.2 334.89L842.73 334.89L842.73 333.03zM839.43 333.96 a3.3 3.3 0 1 0 6.6 0 a3.3 3.3 0 1 0 -6.6 0zM822.85 346.72L822.14 348.44L835.81 354.1L836.52 352.38zM832.87 353.24 a3.3 3.3 0 1 0 6.6 0 a3.3 3.3 0 1 0 -6.6 0zM815.44 358.46L814.12 359.78L824.93 370.59L826.24 369.27zM822.28 369.93 a3.3 3.3 0 1 0 6.6 0 a3.3 3.3 0 1 0 -6.6 0zM804.1 366.48L802.37 367.19L808.13 381.09L809.85 380.37zM805.69 380.73 a3.3 3.3 0 1 0 6.6 0 a3.3 3.3 0 1 0 -6.6 0zM790.55 369.54L788.69 369.54L788.69 382.74L790.55 382.74zM786.32 382.74 a3.3 3.3 0 1 0 6.6 0 a3.3 3.3 0 1 0 -6.6 0zM776.86 367.19L775.14 366.48L773.45 370.55L775.17 371.27zM771.01 370.91 a3.3 3.3 0 1 0 6.6 0 a3.3 3.3 0 1 0 -6.6 0zM765.11 359.78L763.8 358.46L754.12 368.14L755.43 369.46zM751.48 368.8 a3.3 3.3 0 1 0 6.6 0 a3.3 3.3 0 1 0 -6.6 0zM757.1 348.44L756.39 346.72L751.74 348.64L752.45 350.36zM748.79 349.5 a3.3 3.3 0 1 0 6.6 0 a3.3 3.3 0 1 0 -6.6 0zM754.03 334.89L754.03 333.03L739.72 333.03L739.72 334.89zM736.42 333.96 a3.3 3.3 0 1 0 6.6 0 a3.3 3.3 0 1 0 -6.6 0zM756.39 321.2L757.1 319.48L751.23 317.05L750.52 318.77zM747.58 317.91 a3.3 3.3 0 1 0 6.6 0 a3.3 3.3 0 1 0 -6.6 0zM763.8 309.46L765.11 308.14L758.45 301.48L757.14 302.8zM754.49 302.14 a3.3 3.3 0 1 0 6.6 0 a3.3 3.3 0 1 0 -6.6 0zM775.14 301.44L776.86 300.73L773.1 291.65L771.38 292.37zM768.94 292.01 a3.3 3.3 0 1 0 6.6 0 a3.3 3.3 0 1 0 -6.6 0zM788.69 298.37L790.55 298.37L790.55 289.19L788.69 289.19zM786.32 289.19 a3.3 3.3 0 1 0 6.6 0 a3.3 3.3 0 1 0 -6.6 0zM802.37 300.73L804.1 301.44L810.53 285.91L808.81 285.2zM806.37 285.55 a3.3 3.3 0 1 0 6.6 0 a3.3 3.3 0 1 0 -6.6 0zM814.12 308.14L815.44 309.46L820.62 304.27L819.3 302.96zM816.66 303.61 a3.3 3.3 0 1 0 6.6 0 a3.3 3.3 0 1 0 -6.6 0zM822.14 319.48L822.85 321.2L833.41 316.83L832.7 315.11zM829.75 315.97 a3.3 3.3 0 1 0 6.6 0 a3.3 3.3 0 1 0 -6.6 0zM754.02 333.96 a35.6 35.6 0 1 0 71.2 0 a35.6 35.6 0 1 0 -71.2 0z" fill="#488fdb"></path><path d="M763.25 310.05 A34.5968 34.5968 0 0 1 823.49 323.01M823.49 323.01 A71.1936 71.1936 0 0 0 763.25 310.05" fill="#2672c3" fill-rule="nonzero"></path><path d="M764.4 356.04 a6.76 6.76 0 1 0 13.52 0 a6.76 6.76 0 1 0 -13.52 0zM791.27 350.57 a7.12 7.12 0 1 0 14.24 0 a7.12 7.12 0 1 0 -14.24 0zM767.88 310.82 a7.12 7.12 0 1 0 14.24 0 a7.12 7.12 0 1 0 -14.24 0zM761.78 342.28 a1.78 1.78 0 1 0 3.56 0 a1.78 1.78 0 1 0 -3.56 0zM803.39 334.64 a3.92 3.92 0 1 0 7.84 0 a3.92 3.92 0 1 0 -7.84 0zM809.84 319.12 a5.7 5.7 0 1 0 11.4 0 a5.7 5.7 0 1 0 -11.4 0zM785.36 332.28 a5.34 5.34 0 1 0 10.68 0 a5.34 5.34 0 1 0 -10.68 0zM815.53 346.23 a3.56 3.56 0 1 0 7.12 0 a3.56 3.56 0 1 0 -7.12 0zM761.79 324.53 a2.85 2.85 0 1 0 5.7 0 a2.85 2.85 0 1 0 -5.7 0zM800.77 310.88 a2.14 2.14 0 1 0 4.28 0 a2.14 2.14 0 1 0 -4.28 0z" fill="#2672c3" fill-rule="nonzero"></path><path d="M1405.25 498.92L1405.25 500.78L1413.4 500.78L1413.4 498.92zM1410.1 499.85 a3.3 3.3 0 1 0 6.6 0 a3.3 3.3 0 1 0 -6.6 0zM1402.9 512.6L1402.19 514.33L1410.67 517.84L1411.38 516.12zM1407.73 516.98 a3.3 3.3 0 1 0 6.6 0 a3.3 3.3 0 1 0 -6.6 0zM1395.49 524.35L1394.17 525.67L1399.74 531.24L1401.06 529.92zM1397.1 530.58 a3.3 3.3 0 1 0 6.6 0 a3.3 3.3 0 1 0 -6.6 0zM1384.15 532.37L1382.42 533.08L1388.11 546.8L1389.83 546.09zM1385.67 546.44 a3.3 3.3 0 1 0 6.6 0 a3.3 3.3 0 1 0 -6.6 0zM1370.6 535.43L1368.74 535.43L1368.74 550.01L1370.6 550.01zM1366.37 550.01 a3.3 3.3 0 1 0 6.6 0 a3.3 3.3 0 1 0 -6.6 0zM1356.91 533.08L1355.19 532.37L1352.24 539.5L1353.96 540.21zM1349.8 539.86 a3.3 3.3 0 1 0 6.6 0 a3.3 3.3 0 1 0 -6.6 0zM1345.16 525.67L1343.85 524.35L1335.52 532.68L1336.84 534zM1332.88 533.34 a3.3 3.3 0 1 0 6.6 0 a3.3 3.3 0 1 0 -6.6 0zM1337.15 514.33L1336.44 512.6L1320.82 519.07L1321.54 520.79zM1317.88 519.93 a3.3 3.3 0 1 0 6.6 0 a3.3 3.3 0 1 0 -6.6 0zM1334.08 500.78L1334.08 498.92L1326.23 498.92L1326.23 500.78zM1322.93 499.85 a3.3 3.3 0 1 0 6.6 0 a3.3 3.3 0 1 0 -6.6 0zM1336.44 487.09L1337.15 485.37L1324.81 480.26L1324.09 481.98zM1321.15 481.12 a3.3 3.3 0 1 0 6.6 0 a3.3 3.3 0 1 0 -6.6 0zM1343.85 475.34L1345.16 474.03L1333.84 462.7L1332.52 464.02zM1329.88 463.36 a3.3 3.3 0 1 0 6.6 0 a3.3 3.3 0 1 0 -6.6 0zM1355.19 467.33L1356.91 466.62L1353.61 458.65L1351.89 459.36zM1349.45 459.01 a3.3 3.3 0 1 0 6.6 0 a3.3 3.3 0 1 0 -6.6 0zM1368.74 464.26L1370.6 464.26L1370.6 451.52L1368.74 451.52zM1366.37 451.52 a3.3 3.3 0 1 0 6.6 0 a3.3 3.3 0 1 0 -6.6 0zM1382.42 466.62L1384.15 467.33L1389.96 453.29L1388.24 452.58zM1385.8 452.94 a3.3 3.3 0 1 0 6.6 0 a3.3 3.3 0 1 0 -6.6 0zM1394.17 474.03L1395.49 475.34L1401 469.84L1399.68 468.52zM1397.04 469.18 a3.3 3.3 0 1 0 6.6 0 a3.3 3.3 0 1 0 -6.6 0zM1402.19 485.37L1402.9 487.09L1416.55 481.44L1415.83 479.72zM1412.89 480.58 a3.3 3.3 0 1 0 6.6 0 a3.3 3.3 0 1 0 -6.6 0zM1334.07 499.85 a35.6 35.6 0 1 0 71.2 0 a35.6 35.6 0 1 0 -71.2 0z" fill="#488fdb"></path><path d="M1338.77 517.52 A34.5968 34.5968 0 0 1 1369.74 464.25M1369.74 464.25 A71.1936 71.1936 0 0 0 1338.77 517.52" fill="#2672c3" fill-rule="nonzero"></path><path d="M1388.5 479.79 a4.63 4.63 0 1 0 9.26 0 a4.63 4.63 0 1 0 -9.26 0zM1359.81 519.2 a7.12 7.12 0 1 0 14.24 0 a7.12 7.12 0 1 0 -14.24 0zM1350.99 471.75 a3.2 3.2 0 1 0 6.4 0 a3.2 3.2 0 1 0 -6.4 0zM1378.55 509.48 a4.27 4.27 0 1 0 8.54 0 a4.27 4.27 0 1 0 -8.54 0zM1394.16 506.44 a2.14 2.14 0 1 0 4.28 0 a2.14 2.14 0 1 0 -4.28 0zM1336.88 505.32 a7.12 7.12 0 1 0 14.24 0 a7.12 7.12 0 1 0 -14.24 0zM1374.83 498.15 a1.42 1.42 0 1 0 2.84 0 a1.42 1.42 0 1 0 -2.84 0zM1350.86 487.92 a6.05 6.05 0 1 0 12.1 0 a6.05 6.05 0 1 0 -12.1 0zM1369.68 482.93 a3.56 3.56 0 1 0 7.12 0 a3.56 3.56 0 1 0 -7.12 0zM1381.23 523.22 a2.14 2.14 0 1 0 4.28 0 a2.14 2.14 0 1 0 -4.28 0z" fill="#2672c3" fill-rule="nonzero"></path></g><defs><mask id="SvgjsMask1031"><rect width="1440" height="560" fill="#ffffff"></rect></mask><linearGradient x1="15.28%" y1="-39.29%" x2="84.72%" y2="139.29%" gradientUnits="userSpaceOnUse" id="SvgjsLinearGradient1032"><stop stop-color="#0e2a47" offset="0"></stop><stop stop-color="rgba(0, 158, 144, 1)" offset="1"></stop></linearGradient></defs></svg>