<svg xmlns="http://www.w3.org/2000/svg" version="1.1" xmlns:xlink="http://www.w3.org/1999/xlink" xmlns:svgjs="http://svgjs.com/svgjs" width="1448" height="573" preserveAspectRatio="none" viewBox="0 0 1448 573"><g mask="url(&quot;#SvgjsMask1027&quot;)" fill="none"><path d="M834.72 148.39L834.72 152.14L847.18 152.14L847.18 148.39zM840.54 150.27 a6.64 6.64 0 1 0 13.28 0 a6.64 6.64 0 1 0 -13.28 0zM829.99 175.92L828.56 179.38L838.9 183.67L840.33 180.2zM832.97 181.94 a6.64 6.64 0 1 0 13.28 0 a6.64 6.64 0 1 0 -13.28 0zM815.09 199.55L812.44 202.2L831.03 220.79L833.69 218.14zM825.72 219.47 a6.64 6.64 0 1 0 13.28 0 a6.64 6.64 0 1 0 -13.28 0zM792.28 215.67L788.81 217.1L797 236.85L800.46 235.42zM792.09 236.14 a6.64 6.64 0 1 0 13.28 0 a6.64 6.64 0 1 0 -13.28 0zM765.03 221.83L761.29 221.83L761.29 236.48L765.03 236.48zM756.52 236.48 a6.64 6.64 0 1 0 13.28 0 a6.64 6.64 0 1 0 -13.28 0zM737.5 217.1L734.04 215.67L722.72 243L726.18 244.44zM717.81 243.72 a6.64 6.64 0 1 0 13.28 0 a6.64 6.64 0 1 0 -13.28 0zM713.88 202.2L711.23 199.55L693.52 217.25L696.17 219.9zM688.21 218.58 a6.64 6.64 0 1 0 13.28 0 a6.64 6.64 0 1 0 -13.28 0zM697.76 179.38L696.33 175.92L685.7 180.32L687.13 183.79zM679.78 182.05 a6.64 6.64 0 1 0 13.28 0 a6.64 6.64 0 1 0 -13.28 0zM691.59 152.14L691.59 148.39L668.36 148.39L668.36 152.14zM661.72 150.27 a6.64 6.64 0 1 0 13.28 0 a6.64 6.64 0 1 0 -13.28 0zM696.33 124.61L697.76 121.15L665.99 107.99L664.55 111.45zM658.63 109.72 a6.64 6.64 0 1 0 13.28 0 a6.64 6.64 0 1 0 -13.28 0zM711.23 100.99L713.88 98.34L697.69 82.14L695.04 84.8zM689.72 83.47 a6.64 6.64 0 1 0 13.28 0 a6.64 6.64 0 1 0 -13.28 0zM734.04 84.87L737.5 83.43L729.37 63.8L725.91 65.23zM721 64.52 a6.64 6.64 0 1 0 13.28 0 a6.64 6.64 0 1 0 -13.28 0zM761.29 78.7L765.03 78.7L765.03 67.41L761.29 67.41zM756.52 67.41 a6.64 6.64 0 1 0 13.28 0 a6.64 6.64 0 1 0 -13.28 0zM788.81 83.43L792.28 84.87L803.53 57.7L800.07 56.27zM795.16 56.99 a6.64 6.64 0 1 0 13.28 0 a6.64 6.64 0 1 0 -13.28 0zM812.44 98.34L815.09 100.99L822.13 93.95L819.48 91.29zM814.17 92.62 a6.64 6.64 0 1 0 13.28 0 a6.64 6.64 0 1 0 -13.28 0zM828.56 121.15L829.99 124.61L849.86 116.38L848.42 112.92zM842.5 114.65 a6.64 6.64 0 1 0 13.28 0 a6.64 6.64 0 1 0 -13.28 0zM691.57 150.27 a71.59 71.59 0 1 0 143.18 0 a71.59 71.59 0 1 0 -143.18 0z" fill="rgba(2, 202, 0, 1)"></path><path d="M829.5 177.17 A70.58912000000001 70.58912000000001 0 0 1 706.78 194.39M706.78 194.39 A143.17824000000002 143.17824000000002 0 0 0 829.5 177.17" fill="#02a200" fill-rule="nonzero"></path><path d="M695.5 172.31 a3.58 3.58 0 1 0 7.16 0 a3.58 3.58 0 1 0 -7.16 0zM790.88 159.54 a14.32 14.32 0 1 0 28.64 0 a14.32 14.32 0 1 0 -28.64 0zM748.24 191.68 a14.32 14.32 0 1 0 28.64 0 a14.32 14.32 0 1 0 -28.64 0zM791.82 191.42 a4.3 4.3 0 1 0 8.6 0 a4.3 4.3 0 1 0 -8.6 0zM716.34 202.34 a3.58 3.58 0 1 0 7.16 0 a3.58 3.58 0 1 0 -7.16 0zM778.45 125.14 a9.31 9.31 0 1 0 18.62 0 a9.31 9.31 0 1 0 -18.62 0zM702.4 114.26 a5.01 5.01 0 1 0 10.02 0 a5.01 5.01 0 1 0 -10.02 0zM748.27 91.85 a12.89 12.89 0 1 0 25.78 0 a12.89 12.89 0 1 0 -25.78 0zM715.12 163.36 a2.86 2.86 0 1 0 5.72 0 a2.86 2.86 0 1 0 -5.72 0zM729.48 177.62 a2.86 2.86 0 1 0 5.72 0 a2.86 2.86 0 1 0 -5.72 0z" fill="#02a200" fill-rule="nonzero"></path><path d="M1075.47 182.71L1075.47 185.05L1082.51 185.05L1082.51 182.71zM1078.36 183.88 a4.15 4.15 0 1 0 8.3 0 a4.15 4.15 0 1 0 -8.3 0zM1072.51 199.91L1071.61 202.08L1079.57 205.37L1080.47 203.21zM1075.87 204.29 a4.15 4.15 0 1 0 8.3 0 a4.15 4.15 0 1 0 -8.3 0zM1063.2 214.68L1061.54 216.33L1074.33 229.13L1075.99 227.47zM1071.01 228.3 a4.15 4.15 0 1 0 8.3 0 a4.15 4.15 0 1 0 -8.3 0zM1048.94 224.75L1046.77 225.65L1049.74 232.81L1051.9 231.91zM1046.67 232.36 a4.15 4.15 0 1 0 8.3 0 a4.15 4.15 0 1 0 -8.3 0zM1031.91 228.61L1029.57 228.61L1029.57 244.86L1031.91 244.86zM1026.59 244.86 a4.15 4.15 0 1 0 8.3 0 a4.15 4.15 0 1 0 -8.3 0zM1014.71 225.65L1012.54 224.75L1007.64 236.59L1009.8 237.48zM1004.57 237.04 a4.15 4.15 0 1 0 8.3 0 a4.15 4.15 0 1 0 -8.3 0zM999.94 216.33L998.28 214.68L983.05 229.92L984.7 231.57zM979.72 230.74 a4.15 4.15 0 1 0 8.3 0 a4.15 4.15 0 1 0 -8.3 0zM989.86 202.08L988.97 199.91L982.33 202.66L983.22 204.83zM978.62 203.75 a4.15 4.15 0 1 0 8.3 0 a4.15 4.15 0 1 0 -8.3 0zM986.01 185.05L986.01 182.71L969.12 182.71L969.12 185.05zM964.97 183.88 a4.15 4.15 0 1 0 8.3 0 a4.15 4.15 0 1 0 -8.3 0zM988.97 167.84L989.86 165.68L976.77 160.26L975.88 162.42zM972.18 161.34 a4.15 4.15 0 1 0 8.3 0 a4.15 4.15 0 1 0 -8.3 0zM998.28 153.08L999.94 151.42L989.02 140.5L987.36 142.15zM984.04 141.33 a4.15 4.15 0 1 0 8.3 0 a4.15 4.15 0 1 0 -8.3 0zM1012.54 143L1014.71 142.11L1010.25 131.34L1008.08 132.24zM1005.01 131.79 a4.15 4.15 0 1 0 8.3 0 a4.15 4.15 0 1 0 -8.3 0zM1029.57 139.15L1031.91 139.15L1031.91 118.19L1029.57 118.19zM1026.59 118.19 a4.15 4.15 0 1 0 8.3 0 a4.15 4.15 0 1 0 -8.3 0zM1046.77 142.11L1048.94 143L1052.48 134.45L1050.32 133.55zM1047.25 134 a4.15 4.15 0 1 0 8.3 0 a4.15 4.15 0 1 0 -8.3 0zM1061.54 151.42L1063.2 153.08L1067.64 148.63L1065.99 146.98zM1062.66 147.8 a4.15 4.15 0 1 0 8.3 0 a4.15 4.15 0 1 0 -8.3 0zM1071.61 165.68L1072.51 167.84L1079.78 164.83L1078.89 162.67zM1075.18 163.75 a4.15 4.15 0 1 0 8.3 0 a4.15 4.15 0 1 0 -8.3 0zM986 183.88 a44.74 44.74 0 1 0 89.48 0 a44.74 44.74 0 1 0 -89.48 0z" fill="rgba(2, 202, 0, 1)"></path><path d="M986.01 184.99 A43.7432 43.7432 0 0 1 1052.06 144.54M1052.06 144.54 A89.4864 89.4864 0 0 0 986.01 184.99" fill="#02a200" fill-rule="nonzero"></path><path d="M1067.01 203.54 a1.79 1.79 0 1 0 3.58 0 a1.79 1.79 0 1 0 -3.58 0zM1024.07 202.87 a8.95 8.95 0 1 0 17.9 0 a8.95 8.95 0 1 0 -17.9 0zM995.8 203.72 a8.95 8.95 0 1 0 17.9 0 a8.95 8.95 0 1 0 -17.9 0zM1024.19 174.19 a8.95 8.95 0 1 0 17.9 0 a8.95 8.95 0 1 0 -17.9 0zM987.87 172.88 a2.68 2.68 0 1 0 5.36 0 a2.68 2.68 0 1 0 -5.36 0zM1050.35 166.96 a5.82 5.82 0 1 0 11.64 0 a5.82 5.82 0 1 0 -11.64 0zM1025.87 223.2 a2.68 2.68 0 1 0 5.36 0 a2.68 2.68 0 1 0 -5.36 0zM999.55 152.99 a2.24 2.24 0 1 0 4.48 0 a2.24 2.24 0 1 0 -4.48 0zM1001.11 179.64 a5.82 5.82 0 1 0 11.64 0 a5.82 5.82 0 1 0 -11.64 0zM1066.99 178.2 a1.79 1.79 0 1 0 3.58 0 a1.79 1.79 0 1 0 -3.58 0z" fill="#02a200" fill-rule="nonzero"></path><path d="M1394.74 206.24L1394.74 209.99L1404.69 209.99L1404.69 206.24zM1398.05 208.11 a6.64 6.64 0 1 0 13.28 0 a6.64 6.64 0 1 0 -13.28 0zM1390.01 233.77L1388.58 237.23L1396.76 240.62L1398.19 237.15zM1390.83 238.89 a6.64 6.64 0 1 0 13.28 0 a6.64 6.64 0 1 0 -13.28 0zM1375.11 257.39L1372.46 260.04L1389.79 277.37L1392.44 274.72zM1384.47 276.05 a6.64 6.64 0 1 0 13.28 0 a6.64 6.64 0 1 0 -13.28 0zM1352.3 273.51L1348.83 274.95L1359.89 301.63L1363.35 300.19zM1354.98 300.91 a6.64 6.64 0 1 0 13.28 0 a6.64 6.64 0 1 0 -13.28 0zM1325.05 279.68L1321.31 279.68L1321.31 305.53L1325.05 305.53zM1316.54 305.53 a6.64 6.64 0 1 0 13.28 0 a6.64 6.64 0 1 0 -13.28 0zM1297.52 274.95L1294.06 273.51L1281.15 304.68L1284.62 306.11zM1276.25 305.39 a6.64 6.64 0 1 0 13.28 0 a6.64 6.64 0 1 0 -13.28 0zM1273.9 260.04L1271.25 257.39L1246.37 282.27L1249.02 284.92zM1241.05 283.6 a6.64 6.64 0 1 0 13.28 0 a6.64 6.64 0 1 0 -13.28 0zM1257.78 237.23L1256.35 233.77L1225.43 246.57L1226.87 250.04zM1219.51 248.3 a6.64 6.64 0 1 0 13.28 0 a6.64 6.64 0 1 0 -13.28 0zM1251.61 209.99L1251.61 206.24L1219.92 206.24L1219.92 209.99zM1213.28 208.11 a6.64 6.64 0 1 0 13.28 0 a6.64 6.64 0 1 0 -13.28 0zM1256.35 182.46L1257.78 178.99L1240.03 171.64L1238.6 175.11zM1232.67 173.37 a6.64 6.64 0 1 0 13.28 0 a6.64 6.64 0 1 0 -13.28 0zM1271.25 158.83L1273.9 156.18L1257.9 140.18L1255.25 142.83zM1249.93 141.51 a6.64 6.64 0 1 0 13.28 0 a6.64 6.64 0 1 0 -13.28 0zM1294.06 142.71L1297.52 141.28L1284.2 109.11L1280.74 110.54zM1275.83 109.83 a6.64 6.64 0 1 0 13.28 0 a6.64 6.64 0 1 0 -13.28 0zM1321.31 136.55L1325.05 136.55L1325.05 108.01L1321.31 108.01zM1316.54 108.01 a6.64 6.64 0 1 0 13.28 0 a6.64 6.64 0 1 0 -13.28 0zM1348.83 141.28L1352.3 142.71L1364.55 113.14L1361.08 111.71zM1356.18 112.42 a6.64 6.64 0 1 0 13.28 0 a6.64 6.64 0 1 0 -13.28 0zM1372.46 156.18L1375.11 158.83L1385.46 148.48L1382.81 145.83zM1377.5 147.16 a6.64 6.64 0 1 0 13.28 0 a6.64 6.64 0 1 0 -13.28 0zM1388.58 178.99L1390.01 182.46L1418.49 170.66L1417.05 167.2zM1411.13 168.93 a6.64 6.64 0 1 0 13.28 0 a6.64 6.64 0 1 0 -13.28 0zM1251.59 208.11 a71.59 71.59 0 1 0 143.18 0 a71.59 71.59 0 1 0 -143.18 0z" fill="rgba(2, 202, 0, 1)"></path><path d="M1393.12 192.84 A70.58912000000001 70.58912000000001 0 0 1 1301.58 276.37M1301.58 276.37 A143.17824000000002 143.17824000000002 0 0 0 1393.12 192.84" fill="#02a200" fill-rule="nonzero"></path><path d="M1308.92 219.35 a14.32 14.32 0 1 0 28.64 0 a14.32 14.32 0 1 0 -28.64 0zM1327.13 179.64 a14.32 14.32 0 1 0 28.64 0 a14.32 14.32 0 1 0 -28.64 0zM1277.94 226.99 a8.59 8.59 0 1 0 17.18 0 a8.59 8.59 0 1 0 -17.18 0zM1265.74 194.37 a10.74 10.74 0 1 0 21.48 0 a10.74 10.74 0 1 0 -21.48 0zM1371.1 178.41 a7.87 7.87 0 1 0 15.74 0 a7.87 7.87 0 1 0 -15.74 0zM1381.13 228.08 a5.01 5.01 0 1 0 10.02 0 a5.01 5.01 0 1 0 -10.02 0zM1357.95 205.81 a5.01 5.01 0 1 0 10.02 0 a5.01 5.01 0 1 0 -10.02 0zM1280.29 158.89 a14.32 14.32 0 1 0 28.64 0 a14.32 14.32 0 1 0 -28.64 0zM1325.59 260.47 a14.32 14.32 0 1 0 28.64 0 a14.32 14.32 0 1 0 -28.64 0zM1305.69 271.95 a3.58 3.58 0 1 0 7.16 0 a3.58 3.58 0 1 0 -7.16 0z" fill="#02a200" fill-rule="nonzero"></path><path d="M415.49 488.69L415.49 491.03L427.3 491.03L427.3 488.69zM423.15 489.86 a4.15 4.15 0 1 0 8.3 0 a4.15 4.15 0 1 0 -8.3 0zM412.54 505.9L411.64 508.06L423.87 513.13L424.77 510.96zM420.17 512.05 a4.15 4.15 0 1 0 8.3 0 a4.15 4.15 0 1 0 -8.3 0zM403.22 520.66L401.56 522.32L411.51 532.26L413.16 530.6zM408.18 531.43 a4.15 4.15 0 1 0 8.3 0 a4.15 4.15 0 1 0 -8.3 0zM388.96 530.74L386.8 531.63L390.45 540.44L392.61 539.54zM387.38 539.99 a4.15 4.15 0 1 0 8.3 0 a4.15 4.15 0 1 0 -8.3 0zM371.94 534.59L369.59 534.59L369.59 553.87L371.94 553.87zM366.62 553.87 a4.15 4.15 0 1 0 8.3 0 a4.15 4.15 0 1 0 -8.3 0zM354.73 531.63L352.57 530.74L349.1 539.11L351.26 540zM346.03 539.56 a4.15 4.15 0 1 0 8.3 0 a4.15 4.15 0 1 0 -8.3 0zM339.97 522.32L338.31 520.66L328.57 530.41L330.22 532.06zM325.24 531.23 a4.15 4.15 0 1 0 8.3 0 a4.15 4.15 0 1 0 -8.3 0zM329.89 508.06L328.99 505.9L316.87 510.92L317.77 513.08zM313.17 512 a4.15 4.15 0 1 0 8.3 0 a4.15 4.15 0 1 0 -8.3 0zM326.04 491.03L326.04 488.69L318.83 488.69L318.83 491.03zM314.68 489.86 a4.15 4.15 0 1 0 8.3 0 a4.15 4.15 0 1 0 -8.3 0zM328.99 473.83L329.89 471.66L320.65 467.84L319.76 470zM316.05 468.92 a4.15 4.15 0 1 0 8.3 0 a4.15 4.15 0 1 0 -8.3 0zM338.31 459.06L339.97 457.41L336 453.44L334.34 455.1zM331.02 454.27 a4.15 4.15 0 1 0 8.3 0 a4.15 4.15 0 1 0 -8.3 0zM352.57 448.99L354.73 448.09L350.61 438.15L348.45 439.05zM345.38 438.6 a4.15 4.15 0 1 0 8.3 0 a4.15 4.15 0 1 0 -8.3 0zM369.59 445.13L371.94 445.13L371.94 425.15L369.59 425.15zM366.62 425.15 a4.15 4.15 0 1 0 8.3 0 a4.15 4.15 0 1 0 -8.3 0zM386.8 448.09L388.96 448.99L392.3 440.92L390.14 440.03zM387.07 440.47 a4.15 4.15 0 1 0 8.3 0 a4.15 4.15 0 1 0 -8.3 0zM401.56 457.41L403.22 459.06L411 451.28L409.34 449.63zM406.02 450.46 a4.15 4.15 0 1 0 8.3 0 a4.15 4.15 0 1 0 -8.3 0zM411.64 471.66L412.54 473.83L423.78 469.17L422.88 467.01zM419.18 468.09 a4.15 4.15 0 1 0 8.3 0 a4.15 4.15 0 1 0 -8.3 0zM326.03 489.86 a44.74 44.74 0 1 0 89.48 0 a44.74 44.74 0 1 0 -89.48 0z" fill="rgba(2, 202, 0, 1)"></path><path d="M367.77 534.5 A43.7432 43.7432 0 0 1 333.55 465.02M333.55 465.02 A89.4864 89.4864 0 0 0 367.77 534.5" fill="#02a200" fill-rule="nonzero"></path><path d="M340.71 491.84 a8.95 8.95 0 1 0 17.9 0 a8.95 8.95 0 1 0 -17.9 0zM408.21 475.81 a2.24 2.24 0 1 0 4.48 0 a2.24 2.24 0 1 0 -4.48 0zM371.5 511.45 a8.95 8.95 0 1 0 17.9 0 a8.95 8.95 0 1 0 -17.9 0zM352.04 526.56 a5.37 5.37 0 1 0 10.74 0 a5.37 5.37 0 1 0 -10.74 0zM385.89 461.69 a8.05 8.05 0 1 0 16.1 0 a8.05 8.05 0 1 0 -16.1 0zM403.28 505.53 a4.47 4.47 0 1 0 8.94 0 a4.47 4.47 0 1 0 -8.94 0zM352.7 452.18 a4.47 4.47 0 1 0 8.94 0 a4.47 4.47 0 1 0 -8.94 0zM385.36 490.29 a5.37 5.37 0 1 0 10.74 0 a5.37 5.37 0 1 0 -10.74 0zM334.89 514.42 a5.37 5.37 0 1 0 10.74 0 a5.37 5.37 0 1 0 -10.74 0zM330.88 478.78 a2.68 2.68 0 1 0 5.36 0 a2.68 2.68 0 1 0 -5.36 0z" fill="#02a200" fill-rule="nonzero"></path><path d="M1173.33 399.07L1173.33 401.88L1198.69 401.88L1198.69 399.07zM1193.71 400.48 a4.98 4.98 0 1 0 9.96 0 a4.98 4.98 0 1 0 -9.96 0zM1169.78 419.72L1168.71 422.32L1183.51 428.45L1184.58 425.85zM1179.07 427.15 a4.98 4.98 0 1 0 9.96 0 a4.98 4.98 0 1 0 -9.96 0zM1158.6 437.44L1156.62 439.43L1164.04 446.85L1166.03 444.86zM1160.05 445.86 a4.98 4.98 0 1 0 9.96 0 a4.98 4.98 0 1 0 -9.96 0zM1141.5 449.53L1138.9 450.6L1144.47 464.05L1147.06 462.97zM1140.78 463.51 a4.98 4.98 0 1 0 9.96 0 a4.98 4.98 0 1 0 -9.96 0zM1121.06 454.15L1118.25 454.15L1118.25 467.64L1121.06 467.64zM1114.68 467.64 a4.98 4.98 0 1 0 9.96 0 a4.98 4.98 0 1 0 -9.96 0zM1100.42 450.6L1097.82 449.53L1093.41 460.16L1096.01 461.24zM1089.73 460.7 a4.98 4.98 0 1 0 9.96 0 a4.98 4.98 0 1 0 -9.96 0zM1082.7 439.43L1080.71 437.44L1073.96 444.18L1075.95 446.17zM1069.98 445.18 a4.98 4.98 0 1 0 9.96 0 a4.98 4.98 0 1 0 -9.96 0zM1070.61 422.32L1069.53 419.72L1056.1 425.28L1057.17 427.88zM1051.66 426.58 a4.98 4.98 0 1 0 9.96 0 a4.98 4.98 0 1 0 -9.96 0zM1065.98 401.88L1065.98 399.07L1053.56 399.07L1053.56 401.88zM1048.58 400.48 a4.98 4.98 0 1 0 9.96 0 a4.98 4.98 0 1 0 -9.96 0zM1069.53 381.24L1070.61 378.64L1059.02 373.84L1057.95 376.44zM1053.5 375.14 a4.98 4.98 0 1 0 9.96 0 a4.98 4.98 0 1 0 -9.96 0zM1080.71 363.52L1082.7 361.53L1065.52 344.36L1063.53 346.34zM1059.55 345.35 a4.98 4.98 0 1 0 9.96 0 a4.98 4.98 0 1 0 -9.96 0zM1097.82 351.43L1100.42 350.35L1092.92 332.25L1090.32 333.33zM1086.64 332.79 a4.98 4.98 0 1 0 9.96 0 a4.98 4.98 0 1 0 -9.96 0zM1118.25 346.81L1121.06 346.81L1121.06 337.35L1118.25 337.35zM1114.68 337.35 a4.98 4.98 0 1 0 9.96 0 a4.98 4.98 0 1 0 -9.96 0zM1138.9 350.35L1141.5 351.43L1147.86 336.06L1145.27 334.98zM1141.58 335.52 a4.98 4.98 0 1 0 9.96 0 a4.98 4.98 0 1 0 -9.96 0zM1156.62 361.53L1158.6 363.52L1167.29 354.84L1165.3 352.85zM1161.31 353.84 a4.98 4.98 0 1 0 9.96 0 a4.98 4.98 0 1 0 -9.96 0zM1168.71 378.64L1169.78 381.24L1192.11 371.99L1191.04 369.39zM1186.59 370.69 a4.98 4.98 0 1 0 9.96 0 a4.98 4.98 0 1 0 -9.96 0zM1065.97 400.48 a53.69 53.69 0 1 0 107.38 0 a53.69 53.69 0 1 0 -107.38 0z" fill="rgba(2, 202, 0, 1)"></path><path d="M1134.2 348.79 A52.69184 52.69184 0 0 1 1157.23 438.83M1157.23 438.83 A107.38368 107.38368 0 0 0 1134.2 348.79" fill="#02a200" fill-rule="nonzero"></path><path d="M1073.68 426.95 a2.15 2.15 0 1 0 4.3 0 a2.15 2.15 0 1 0 -4.3 0zM1123.42 363.13 a10.74 10.74 0 1 0 21.48 0 a10.74 10.74 0 1 0 -21.48 0zM1084.67 362.68 a5.37 5.37 0 1 0 10.74 0 a5.37 5.37 0 1 0 -10.74 0zM1067.8 393.92 a10.74 10.74 0 1 0 21.48 0 a10.74 10.74 0 1 0 -21.48 0zM1116.23 414.8 a10.74 10.74 0 1 0 21.48 0 a10.74 10.74 0 1 0 -21.48 0zM1102.74 374.69 a4.83 4.83 0 1 0 9.66 0 a4.83 4.83 0 1 0 -9.66 0zM1088.68 434.62 a10.74 10.74 0 1 0 21.48 0 a10.74 10.74 0 1 0 -21.48 0zM1136.84 442.98 a5.37 5.37 0 1 0 10.74 0 a5.37 5.37 0 1 0 -10.74 0zM1129.68 389.69 a4.3 4.3 0 1 0 8.6 0 a4.3 4.3 0 1 0 -8.6 0zM1157 402.3 a8.05 8.05 0 1 0 16.1 0 a8.05 8.05 0 1 0 -16.1 0z" fill="#02a200" fill-rule="nonzero"></path><path d="M563.01 317.12L563.01 319.46L579.38 319.46L579.38 317.12zM575.23 318.29 a4.15 4.15 0 1 0 8.3 0 a4.15 4.15 0 1 0 -8.3 0zM560.05 334.32L559.15 336.48L565.33 339.04L566.22 336.88zM561.62 337.96 a4.15 4.15 0 1 0 8.3 0 a4.15 4.15 0 1 0 -8.3 0zM550.73 349.09L549.08 350.74L555.69 357.35L557.35 355.7zM552.37 356.53 a4.15 4.15 0 1 0 8.3 0 a4.15 4.15 0 1 0 -8.3 0zM536.48 359.16L534.31 360.06L539.44 372.44L541.61 371.54zM536.37 371.99 a4.15 4.15 0 1 0 8.3 0 a4.15 4.15 0 1 0 -8.3 0zM519.45 363.01L517.11 363.01L517.11 382L519.45 382zM514.13 382 a4.15 4.15 0 1 0 8.3 0 a4.15 4.15 0 1 0 -8.3 0zM502.24 360.06L500.08 359.16L495.44 370.37L497.6 371.26zM492.37 370.82 a4.15 4.15 0 1 0 8.3 0 a4.15 4.15 0 1 0 -8.3 0zM487.48 350.74L485.82 349.09L470.98 363.93L472.64 365.58zM467.66 364.76 a4.15 4.15 0 1 0 8.3 0 a4.15 4.15 0 1 0 -8.3 0zM477.4 336.48L476.51 334.32L468.83 337.5L469.73 339.67zM465.13 338.58 a4.15 4.15 0 1 0 8.3 0 a4.15 4.15 0 1 0 -8.3 0zM473.55 319.46L473.55 317.12L465.89 317.12L465.89 319.46zM461.74 318.29 a4.15 4.15 0 1 0 8.3 0 a4.15 4.15 0 1 0 -8.3 0zM476.51 302.25L477.4 300.09L461.24 293.39L460.34 295.55zM456.64 294.47 a4.15 4.15 0 1 0 8.3 0 a4.15 4.15 0 1 0 -8.3 0zM485.82 287.49L487.48 285.83L483.44 281.79L481.79 283.45zM478.46 282.62 a4.15 4.15 0 1 0 8.3 0 a4.15 4.15 0 1 0 -8.3 0zM500.08 277.41L502.24 276.51L498.65 267.85L496.49 268.75zM493.42 268.3 a4.15 4.15 0 1 0 8.3 0 a4.15 4.15 0 1 0 -8.3 0zM517.11 273.56L519.45 273.56L519.45 251.46L517.11 251.46zM514.13 251.46 a4.15 4.15 0 1 0 8.3 0 a4.15 4.15 0 1 0 -8.3 0zM534.31 276.51L536.48 277.41L542.2 263.59L540.04 262.69zM536.97 263.14 a4.15 4.15 0 1 0 8.3 0 a4.15 4.15 0 1 0 -8.3 0zM549.08 285.83L550.73 287.49L559.62 278.61L557.96 276.95zM554.64 277.78 a4.15 4.15 0 1 0 8.3 0 a4.15 4.15 0 1 0 -8.3 0zM559.15 300.09L560.05 302.25L565.37 300.05L564.48 297.88zM560.77 298.97 a4.15 4.15 0 1 0 8.3 0 a4.15 4.15 0 1 0 -8.3 0zM473.54 318.29 a44.74 44.74 0 1 0 89.48 0 a44.74 44.74 0 1 0 -89.48 0z" fill="rgba(2, 202, 0, 1)"></path><path d="M549.72 350.12 A43.7432 43.7432 0 0 1 475.01 329.69M475.01 329.69 A89.4864 89.4864 0 0 0 549.72 350.12" fill="#02a200" fill-rule="nonzero"></path><path d="M511.15 308.47 a8.95 8.95 0 1 0 17.9 0 a8.95 8.95 0 1 0 -17.9 0zM548.85 325.51 a6.71 6.71 0 1 0 13.42 0 a6.71 6.71 0 1 0 -13.42 0zM480.11 317.92 a8.95 8.95 0 1 0 17.9 0 a8.95 8.95 0 1 0 -17.9 0zM499.64 351.39 a8.95 8.95 0 1 0 17.9 0 a8.95 8.95 0 1 0 -17.9 0zM544.74 292.76 a4.47 4.47 0 1 0 8.94 0 a4.47 4.47 0 1 0 -8.94 0zM520.58 276.96 a2.68 2.68 0 1 0 5.36 0 a2.68 2.68 0 1 0 -5.36 0zM506.61 330.81 a2.68 2.68 0 1 0 5.36 0 a2.68 2.68 0 1 0 -5.36 0zM522.51 329.73 a4.03 4.03 0 1 0 8.06 0 a4.03 4.03 0 1 0 -8.06 0zM526.59 350.98 a2.24 2.24 0 1 0 4.48 0 a2.24 2.24 0 1 0 -4.48 0zM481.1 341.93 a1.79 1.79 0 1 0 3.58 0 a1.79 1.79 0 1 0 -3.58 0z" fill="#02a200" fill-rule="nonzero"></path><path d="M199.26 159.73L199.26 163.48L216.59 163.48L216.59 159.73zM209.95 161.6 a6.64 6.64 0 1 0 13.28 0 a6.64 6.64 0 1 0 -13.28 0zM194.53 187.26L193.09 190.72L202.33 194.55L203.76 191.09zM196.41 192.82 a6.64 6.64 0 1 0 13.28 0 a6.64 6.64 0 1 0 -13.28 0zM179.62 210.88L176.97 213.53L195.44 232L198.09 229.35zM190.12 230.68 a6.64 6.64 0 1 0 13.28 0 a6.64 6.64 0 1 0 -13.28 0zM156.81 227L153.35 228.44L156.81 236.81L160.28 235.37zM151.9 236.09 a6.64 6.64 0 1 0 13.28 0 a6.64 6.64 0 1 0 -13.28 0zM129.57 233.17L125.82 233.17L125.82 260.86L129.57 260.86zM121.05 260.86 a6.64 6.64 0 1 0 13.28 0 a6.64 6.64 0 1 0 -13.28 0zM102.04 228.44L98.57 227L85.2 259.29L88.66 260.73zM80.29 260.01 a6.64 6.64 0 1 0 13.28 0 a6.64 6.64 0 1 0 -13.28 0zM78.41 213.53L75.76 210.88L69.48 217.16L72.13 219.81zM64.17 218.49 a6.64 6.64 0 1 0 13.28 0 a6.64 6.64 0 1 0 -13.28 0zM62.29 190.72L60.86 187.26L50.89 191.39L52.32 194.85zM44.97 193.12 a6.64 6.64 0 1 0 13.28 0 a6.64 6.64 0 1 0 -13.28 0zM56.13 163.48L56.13 159.73L37.52 159.73L37.52 163.48zM30.88 161.6 a6.64 6.64 0 1 0 13.28 0 a6.64 6.64 0 1 0 -13.28 0zM60.86 135.95L62.29 132.49L33.74 120.66L32.31 124.12zM26.39 122.39 a6.64 6.64 0 1 0 13.28 0 a6.64 6.64 0 1 0 -13.28 0zM75.76 112.32L78.41 109.67L58.66 89.92L56.01 92.58zM50.7 91.25 a6.64 6.64 0 1 0 13.28 0 a6.64 6.64 0 1 0 -13.28 0zM98.57 96.2L102.04 94.77L94.15 75.73L90.69 77.16zM85.78 76.45 a6.64 6.64 0 1 0 13.28 0 a6.64 6.64 0 1 0 -13.28 0zM125.82 90.04L129.57 90.04L129.57 55.19L125.82 55.19zM121.05 55.19 a6.64 6.64 0 1 0 13.28 0 a6.64 6.64 0 1 0 -13.28 0zM153.35 94.77L156.81 96.2L161.76 84.25L158.3 82.81zM153.39 83.53 a6.64 6.64 0 1 0 13.28 0 a6.64 6.64 0 1 0 -13.28 0zM176.97 109.67L179.62 112.32L191.12 100.82L188.47 98.17zM183.16 99.49 a6.64 6.64 0 1 0 13.28 0 a6.64 6.64 0 1 0 -13.28 0zM193.09 132.49L194.53 135.95L217.38 126.48L215.95 123.02zM210.03 124.75 a6.64 6.64 0 1 0 13.28 0 a6.64 6.64 0 1 0 -13.28 0zM56.1 161.6 a71.59 71.59 0 1 0 143.18 0 a71.59 71.59 0 1 0 -143.18 0z" fill="rgba(2, 202, 0, 1)"></path><path d="M177.02 213.48 A70.58912000000001 70.58912000000001 0 0 1 58.13 178.53M58.13 178.53 A143.17824000000002 143.17824000000002 0 0 0 177.02 213.48" fill="#02a200" fill-rule="nonzero"></path><path d="M105.32 148.7 a14.32 14.32 0 1 0 28.64 0 a14.32 14.32 0 1 0 -28.64 0zM124.62 209.66 a14.32 14.32 0 1 0 28.64 0 a14.32 14.32 0 1 0 -28.64 0zM146.44 178.29 a5.01 5.01 0 1 0 10.02 0 a5.01 5.01 0 1 0 -10.02 0zM84.67 158.46 a3.58 3.58 0 1 0 7.16 0 a3.58 3.58 0 1 0 -7.16 0zM164.53 118.42 a8.59 8.59 0 1 0 17.18 0 a8.59 8.59 0 1 0 -17.18 0zM183.31 175.63 a7.16 7.16 0 1 0 14.32 0 a7.16 7.16 0 1 0 -14.32 0zM67.26 193.71 a14.32 14.32 0 1 0 28.64 0 a14.32 14.32 0 1 0 -28.64 0zM109.47 182.36 a5.01 5.01 0 1 0 10.02 0 a5.01 5.01 0 1 0 -10.02 0zM59.43 143.26 a7.16 7.16 0 1 0 14.32 0 a7.16 7.16 0 1 0 -14.32 0zM187.05 150.87 a2.86 2.86 0 1 0 5.72 0 a2.86 2.86 0 1 0 -5.72 0z" fill="#02a200" fill-rule="nonzero"></path><path d="M923.82 447.77L923.82 450.12L932.61 450.12L932.61 447.77zM928.46 448.95 a4.15 4.15 0 1 0 8.3 0 a4.15 4.15 0 1 0 -8.3 0zM920.87 464.98L919.97 467.14L930.02 471.31L930.92 469.14zM926.32 470.23 a4.15 4.15 0 1 0 8.3 0 a4.15 4.15 0 1 0 -8.3 0zM911.55 479.75L909.89 481.4L921.87 493.38L923.53 491.72zM918.55 492.55 a4.15 4.15 0 1 0 8.3 0 a4.15 4.15 0 1 0 -8.3 0zM897.29 489.82L895.13 490.72L902.31 508.05L904.47 507.15zM899.24 507.6 a4.15 4.15 0 1 0 8.3 0 a4.15 4.15 0 1 0 -8.3 0zM880.27 493.67L877.92 493.67L877.92 499.79L880.27 499.79zM874.95 499.79 a4.15 4.15 0 1 0 8.3 0 a4.15 4.15 0 1 0 -8.3 0zM863.06 490.72L860.9 489.82L853.83 506.88L856 507.77zM850.76 507.32 a4.15 4.15 0 1 0 8.3 0 a4.15 4.15 0 1 0 -8.3 0zM848.3 481.4L846.64 479.75L840.42 485.97L842.07 487.62zM837.1 486.8 a4.15 4.15 0 1 0 8.3 0 a4.15 4.15 0 1 0 -8.3 0zM838.22 467.14L837.32 464.98L820.45 471.97L821.35 474.13zM816.75 473.05 a4.15 4.15 0 1 0 8.3 0 a4.15 4.15 0 1 0 -8.3 0zM834.37 450.12L834.37 447.77L813.83 447.77L813.83 450.12zM809.68 448.95 a4.15 4.15 0 1 0 8.3 0 a4.15 4.15 0 1 0 -8.3 0zM837.32 432.91L838.22 430.75L824.67 425.13L823.77 427.3zM820.07 426.22 a4.15 4.15 0 1 0 8.3 0 a4.15 4.15 0 1 0 -8.3 0zM846.64 418.15L848.3 416.49L838.04 406.24L836.39 407.89zM833.06 407.07 a4.15 4.15 0 1 0 8.3 0 a4.15 4.15 0 1 0 -8.3 0zM860.9 408.07L863.06 407.17L857.68 394.18L855.52 395.08zM852.45 394.63 a4.15 4.15 0 1 0 8.3 0 a4.15 4.15 0 1 0 -8.3 0zM877.92 404.22L880.27 404.22L880.27 392.45L877.92 392.45zM874.95 392.45 a4.15 4.15 0 1 0 8.3 0 a4.15 4.15 0 1 0 -8.3 0zM895.13 407.17L897.29 408.07L899.87 401.85L897.71 400.96zM894.64 401.41 a4.15 4.15 0 1 0 8.3 0 a4.15 4.15 0 1 0 -8.3 0zM909.89 416.49L911.55 418.15L921.01 408.69L919.36 407.03zM916.03 407.86 a4.15 4.15 0 1 0 8.3 0 a4.15 4.15 0 1 0 -8.3 0zM919.97 430.75L920.87 432.91L931.07 428.69L930.17 426.52zM926.47 427.6 a4.15 4.15 0 1 0 8.3 0 a4.15 4.15 0 1 0 -8.3 0zM834.36 448.95 a44.74 44.74 0 1 0 89.48 0 a44.74 44.74 0 1 0 -89.48 0z" fill="rgba(2, 202, 0, 1)"></path><path d="M915.62 423.1 A43.7432 43.7432 0 0 1 883.31 493.49M883.31 493.49 A89.4864 89.4864 0 0 0 915.62 423.1" fill="#02a200" fill-rule="nonzero"></path><path d="M834.44 449.34 a4.03 4.03 0 1 0 8.06 0 a4.03 4.03 0 1 0 -8.06 0zM856.41 485.38 a3.13 3.13 0 1 0 6.26 0 a3.13 3.13 0 1 0 -6.26 0zM892.92 443.59 a8.95 8.95 0 1 0 17.9 0 a8.95 8.95 0 1 0 -17.9 0zM875.63 461.35 a7.61 7.61 0 1 0 15.22 0 a7.61 7.61 0 1 0 -15.22 0zM919.25 451.98 a2.24 2.24 0 1 0 4.48 0 a2.24 2.24 0 1 0 -4.48 0zM856.87 426.54 a8.95 8.95 0 1 0 17.9 0 a8.95 8.95 0 1 0 -17.9 0zM897.32 471.77 a5.82 5.82 0 1 0 11.64 0 a5.82 5.82 0 1 0 -11.64 0zM851.4 446.59 a1.79 1.79 0 1 0 3.58 0 a1.79 1.79 0 1 0 -3.58 0zM842.21 471.68 a5.82 5.82 0 1 0 11.64 0 a5.82 5.82 0 1 0 -11.64 0zM907.51 422.19 a3.13 3.13 0 1 0 6.26 0 a3.13 3.13 0 1 0 -6.26 0z" fill="#02a200" fill-rule="nonzero"></path><path d="M153.51 421.92L153.51 424.26L166.78 424.26L166.78 421.92zM162.63 423.09 a4.15 4.15 0 1 0 8.3 0 a4.15 4.15 0 1 0 -8.3 0zM150.56 439.13L149.66 441.29L165.03 447.66L165.93 445.5zM161.33 446.58 a4.15 4.15 0 1 0 8.3 0 a4.15 4.15 0 1 0 -8.3 0zM141.24 453.89L139.58 455.55L152.94 468.91L154.6 467.25zM149.62 468.08 a4.15 4.15 0 1 0 8.3 0 a4.15 4.15 0 1 0 -8.3 0zM126.98 463.97L124.82 464.86L131.71 481.49L133.87 480.6zM128.64 481.05 a4.15 4.15 0 1 0 8.3 0 a4.15 4.15 0 1 0 -8.3 0zM109.96 467.82L107.61 467.82L107.61 488.83L109.96 488.83zM104.64 488.83 a4.15 4.15 0 1 0 8.3 0 a4.15 4.15 0 1 0 -8.3 0zM92.75 464.86L90.59 463.97L83.04 482.18L85.21 483.07zM79.98 482.63 a4.15 4.15 0 1 0 8.3 0 a4.15 4.15 0 1 0 -8.3 0zM77.99 455.55L76.33 453.89L61.32 468.9L62.97 470.56zM58 469.73 a4.15 4.15 0 1 0 8.3 0 a4.15 4.15 0 1 0 -8.3 0zM67.91 441.29L67.01 439.13L59.47 442.25L60.36 444.42zM55.76 443.34 a4.15 4.15 0 1 0 8.3 0 a4.15 4.15 0 1 0 -8.3 0zM64.06 424.26L64.06 421.92L52.08 421.92L52.08 424.26zM47.93 423.09 a4.15 4.15 0 1 0 8.3 0 a4.15 4.15 0 1 0 -8.3 0zM67.01 407.06L67.91 404.89L62.4 402.61L61.51 404.78zM57.81 403.7 a4.15 4.15 0 1 0 8.3 0 a4.15 4.15 0 1 0 -8.3 0zM76.33 392.29L77.99 390.64L69.08 381.73L67.43 383.39zM64.11 382.56 a4.15 4.15 0 1 0 8.3 0 a4.15 4.15 0 1 0 -8.3 0zM90.59 382.22L92.75 381.32L86.43 366.05L84.26 366.95zM81.19 366.5 a4.15 4.15 0 1 0 8.3 0 a4.15 4.15 0 1 0 -8.3 0zM107.61 378.37L109.96 378.37L109.96 369.38L107.61 369.38zM104.64 369.38 a4.15 4.15 0 1 0 8.3 0 a4.15 4.15 0 1 0 -8.3 0zM124.82 381.32L126.98 382.22L132.45 369.03L130.28 368.13zM127.22 368.58 a4.15 4.15 0 1 0 8.3 0 a4.15 4.15 0 1 0 -8.3 0zM139.58 390.64L141.24 392.29L153.37 380.17L151.71 378.51zM148.39 379.34 a4.15 4.15 0 1 0 8.3 0 a4.15 4.15 0 1 0 -8.3 0zM149.66 404.89L150.56 407.06L157.6 404.14L156.7 401.98zM153 403.06 a4.15 4.15 0 1 0 8.3 0 a4.15 4.15 0 1 0 -8.3 0zM64.05 423.09 a44.74 44.74 0 1 0 89.48 0 a44.74 44.74 0 1 0 -89.48 0z" fill="rgba(2, 202, 0, 1)"></path><path d="M95.25 380.45 A43.7432 43.7432 0 0 1 152.51 432.6M152.51 432.6 A89.4864 89.4864 0 0 0 95.25 380.45" fill="#02a200" fill-rule="nonzero"></path><path d="M115.63 431.32 a8.95 8.95 0 1 0 17.9 0 a8.95 8.95 0 1 0 -17.9 0zM84.21 427.9 a8.95 8.95 0 1 0 17.9 0 a8.95 8.95 0 1 0 -17.9 0zM134.58 412.14 a8.05 8.05 0 1 0 16.1 0 a8.05 8.05 0 1 0 -16.1 0zM95.22 401.03 a8.95 8.95 0 1 0 17.9 0 a8.95 8.95 0 1 0 -17.9 0zM124.39 386.25 a3.13 3.13 0 1 0 6.26 0 a3.13 3.13 0 1 0 -6.26 0zM142.2 435.41 a1.79 1.79 0 1 0 3.58 0 a1.79 1.79 0 1 0 -3.58 0zM113.68 454.05 a5.37 5.37 0 1 0 10.74 0 a5.37 5.37 0 1 0 -10.74 0zM68.52 408.57 a7.61 7.61 0 1 0 15.22 0 a7.61 7.61 0 1 0 -15.22 0zM67.94 434.08 a4.03 4.03 0 1 0 8.06 0 a4.03 4.03 0 1 0 -8.06 0zM133.66 455.49 a1.79 1.79 0 1 0 3.58 0 a1.79 1.79 0 1 0 -3.58 0z" fill="#02a200" fill-rule="nonzero"></path><path d="M413.84 68.84L413.84 70.71L419.09 70.71L419.09 68.84zM415.77 69.77 a3.32 3.32 0 1 0 6.64 0 a3.32 3.32 0 1 0 -6.64 0zM411.47 82.6L410.76 84.33L417.64 87.18L418.36 85.45zM414.68 86.32 a3.32 3.32 0 1 0 6.64 0 a3.32 3.32 0 1 0 -6.64 0zM404.02 94.41L402.69 95.74L411.77 104.81L413.09 103.49zM409.11 104.15 a3.32 3.32 0 1 0 6.64 0 a3.32 3.32 0 1 0 -6.64 0zM392.61 102.47L390.88 103.19L397.21 118.45L398.94 117.74zM394.75 118.1 a3.32 3.32 0 1 0 6.64 0 a3.32 3.32 0 1 0 -6.64 0zM378.99 105.56L377.12 105.56L377.12 120.98L378.99 120.98zM374.74 120.98 a3.32 3.32 0 1 0 6.64 0 a3.32 3.32 0 1 0 -6.64 0zM365.23 103.19L363.5 102.47L360.45 109.83L362.18 110.55zM358 110.19 a3.32 3.32 0 1 0 6.64 0 a3.32 3.32 0 1 0 -6.64 0zM353.42 95.74L352.09 94.41L348.18 98.32L349.51 99.65zM345.52 98.99 a3.32 3.32 0 1 0 6.64 0 a3.32 3.32 0 1 0 -6.64 0zM345.36 84.33L344.64 82.6L333.59 87.18L334.31 88.91zM330.63 88.04 a3.32 3.32 0 1 0 6.64 0 a3.32 3.32 0 1 0 -6.64 0zM342.27 70.71L342.27 68.84L326.16 68.84L326.16 70.71zM322.84 69.77 a3.32 3.32 0 1 0 6.64 0 a3.32 3.32 0 1 0 -6.64 0zM344.64 56.95L345.36 55.22L329.22 48.53L328.51 50.27zM325.55 49.4 a3.32 3.32 0 1 0 6.64 0 a3.32 3.32 0 1 0 -6.64 0zM352.09 45.13L353.42 43.81L348.64 39.03L347.31 40.35zM344.65 39.69 a3.32 3.32 0 1 0 6.64 0 a3.32 3.32 0 1 0 -6.64 0zM363.5 37.07L365.23 36.36L363.38 31.89L361.64 32.6zM359.19 32.24 a3.32 3.32 0 1 0 6.64 0 a3.32 3.32 0 1 0 -6.64 0zM377.12 33.99L378.99 33.99L378.99 19.75L377.12 19.75zM374.74 19.75 a3.32 3.32 0 1 0 6.64 0 a3.32 3.32 0 1 0 -6.64 0zM390.88 36.36L392.61 37.07L397.41 25.5L395.68 24.78zM393.22 25.14 a3.32 3.32 0 1 0 6.64 0 a3.32 3.32 0 1 0 -6.64 0zM402.69 43.81L404.02 45.13L414.87 34.29L413.54 32.96zM410.88 33.63 a3.32 3.32 0 1 0 6.64 0 a3.32 3.32 0 1 0 -6.64 0zM410.76 55.22L411.47 56.95L418.93 53.86L418.21 52.13zM415.25 52.99 a3.32 3.32 0 1 0 6.64 0 a3.32 3.32 0 1 0 -6.64 0zM342.27 69.77 a35.79 35.79 0 1 0 71.58 0 a35.79 35.79 0 1 0 -71.58 0z" fill="rgba(2, 202, 0, 1)"></path><path d="M411.66 82.1 A34.794560000000004 34.794560000000004 0 0 1 350.62 92.77M350.62 92.77 A71.58912000000001 71.58912000000001 0 0 0 411.66 82.1" fill="#02a200" fill-rule="nonzero"></path><path d="M386.45 96.22 a5.73 5.73 0 1 0 11.46 0 a5.73 5.73 0 1 0 -11.46 0zM387.65 63.47 a7.16 7.16 0 1 0 14.32 0 a7.16 7.16 0 1 0 -14.32 0zM371.09 65.08 a4.65 4.65 0 1 0 9.3 0 a4.65 4.65 0 1 0 -9.3 0zM351.67 46.85 a2.51 2.51 0 1 0 5.02 0 a2.51 2.51 0 1 0 -5.02 0zM342.54 67.81 a1.79 1.79 0 1 0 3.58 0 a1.79 1.79 0 1 0 -3.58 0zM359.45 80.1 a6.09 6.09 0 1 0 12.18 0 a6.09 6.09 0 1 0 -12.18 0zM405.09 74.83 a3.22 3.22 0 1 0 6.44 0 a3.22 3.22 0 1 0 -6.44 0zM385.45 82.16 a1.79 1.79 0 1 0 3.58 0 a1.79 1.79 0 1 0 -3.58 0zM372.88 99.24 a3.22 3.22 0 1 0 6.44 0 a3.22 3.22 0 1 0 -6.44 0zM361.71 100.18 a1.79 1.79 0 1 0 3.58 0 a1.79 1.79 0 1 0 -3.58 0z" fill="#02a200" fill-rule="nonzero"></path></g><defs><mask id="SvgjsMask1027"><rect width="1448" height="573" fill="#ffffff"></rect></mask></defs></svg>